<?xml version="1.0" encoding="UTF-8" standalone="no"?>
<!-- Created with Inkscape (http://www.inkscape.org/) -->

<svg
   width="73.510002"
   height="80"
   viewBox="0 0 19.449521 21.166667"
   version="1.1"
   id="svg675"
   sodipodi:docname="logo.svg"
   inkscape:version="1.1.2 (0a00cf5339, 2022-02-04)"
   xmlns:inkscape="http://www.inkscape.org/namespaces/inkscape"
   xmlns:sodipodi="http://sodipodi.sourceforge.net/DTD/sodipodi-0.dtd"
   xmlns="http://www.w3.org/2000/svg"
   xmlns:svg="http://www.w3.org/2000/svg">
  <sodipodi:namedview
     id="namedview677"
     pagecolor="#ffffff"
     bordercolor="#666666"
     borderopacity="1.0"
     inkscape:pageshadow="2"
     inkscape:pageopacity="0.0"
     inkscape:pagecheckerboard="0"
     inkscape:document-units="mm"
     showgrid="false"
     inkscape:zoom="4.4123463"
     inkscape:cx="24.250136"
     inkscape:cy="19.150809"
     inkscape:window-width="1551"
     inkscape:window-height="1082"
     inkscape:window-x="1710"
     inkscape:window-y="761"
     inkscape:window-maximized="0"
     inkscape:current-layer="g1117"
     units="px"
     fit-margin-top="0"
     fit-margin-left="0"
     fit-margin-right="0"
     fit-margin-bottom="0"
     showguides="false" />
  <defs
     id="defs672" />
  <g
     inkscape:label="Layer 1"
     inkscape:groupmode="layer"
     id="layer1">
    <g
       id="g1418"
       transform="matrix(0.35277778,0,0,0.35277778,-12.163243,-15.926952)">
      <g
         id="g1117"
         transform="matrix(0.36028495,0,0,0.36028495,22.056405,28.881387)">
        <path
           d="m 100.16758,119.14442 c -0.420169,-0.11288 -0.798339,-0.72831 -0.798339,-0.72831 0,0 0.639889,-0.88674 1.157249,-0.99441 -0.0177,0.16549 -0.002,0.43418 0.0552,0.73269 0.063,0.33176 0.18827,0.92001 0.27488,1.0557 -0.1812,0.0762 -0.47009,-0.008 -0.68893,-0.0658 z m 1.57657,-1.41546 c 0,0 0.32124,0.64777 -0.1278,1.04956 -0.14095,0.13035 -0.36942,0.29763 -0.48758,0.37116 0.0177,-0.16372 -0.12348,-0.7747 -0.17766,-1.06357 -0.0534,-0.27487 -0.12524,-0.51473 -0.19513,-0.66441 0.5436,0.0936 0.98831,0.30726 0.98831,0.30726 z m -6.110099,2.17354 c -0.0177,0 0.0253,-0.3729 0.008,-0.37115 0.0359,-0.16274 0.0552,-0.3948 0.0463,-0.65654 -0.006,-0.27749 -0.0377,-0.52346 -0.084,-0.68279 0.34928,0.0658 0.67052,0.23811 0.84471,0.43944 0.20222,0.23459 0.34578,0.57863 0.34578,0.57863 0,0 -0.68102,0.61889 -1.16073,0.69241 z m -1.0706,-0.42105 c -0.28012,-0.25299 -0.45868,-0.91477 -0.45868,-0.91477 0.27923,-0.15234 0.87712,-0.41844 1.27103,-0.40354 -0.0448,0.16451 -0.0701,0.42629 -0.0622,0.72131 0.006,0.26873 0.0638,0.84123 0.10758,1.0023 -0.28538,0.006 -0.64078,-0.20834 -0.85788,-0.4053 z m 2.8651,31.70508 c 0.75632,-0.30287 1.14412,-0.45169 1.53016,-1.17649 0.41577,-0.78258 0.82808,-2.2392 1.698209,-5.31177 0.78783,-2.77668 1.91794,-6.79987 2.92725,-6.26414 0.55499,0.97253 1.25089,1.68682 1.49426,2.91936 0.14527,0.7353 0.29235,1.47062 0.43768,2.20418 0.0236,1.18 -0.3729,6.94695 -1.08982,8.38432 -0.66444,-0.28538 -1.24568,-0.10424 -1.55557,0.22933 -0.37902,0.41057 -0.35014,1.04783 0.44996,1.33144 0.13487,0.13742 0.0324,0.40882 0.29237,0.56989 0.71956,0.17943 0.99529,-0.26349 1.64832,-0.17766 0.53136,-0.31164 0.94891,-0.71518 1.28855,-1.18701 0.50422,-0.58124 0.42982,-1.6107 0.56812,-2.43267 0.01,-0.0605 0.0177,-0.12171 0.0306,-0.17589 0.34138,-1.20539 0.7318,-2.79068 1.01192,-4.20616 0.43942,-1.97308 1.83828,-5.11743 2.30135,-5.89037 0.57775,-0.92264 3.39732,-1.27194 4.11686,-1.12135 0.57425,0.11995 1.15551,0.39041 1.80241,0.32301 0.11288,0.0342 0.21533,0.0772 0.31074,0.12878 0.8141,2.36088 1.42861,3.52337 2.23396,5.89125 -0.21184,2.62437 -0.15234,3.5584 -1.38574,4.52743 -0.41753,0.37992 -1.30252,-0.0324 -1.88553,0.18296 -0.18826,0.0701 -0.27925,0.49109 -0.10777,0.70293 0.14978,0.18649 -0.29064,0.0805 -0.1865,0.4543 0.0752,0.2705 0.47884,0.13742 0.42195,0.28626 -0.12956,0.34141 -0.30288,0.48846 0.0446,0.58301 0.14173,0.0377 0.28714,0.0595 0.43594,0.0718 0.0289,0.004 0.0613,0.004 0.0903,0.006 0.13211,0.008 0.26174,0.008 0.3904,9.7e-4 0.75894,-0.0385 1.45048,-0.29325 1.61943,-0.38954 0.18473,-0.16903 0.36942,-0.31777 0.55412,-0.49371 0.34577,-0.32652 0.69418,-0.75108 1.04783,-1.5888 0.79744,-1.8838 2.00897,-4.28233 1.98883,-4.71825 0.0157,-0.74583 -0.32825,-2.64889 -0.46657,-3.38069 0.1225,-0.36591 -0.15234,-1.84615 -0.19514,-2.26372 0.11465,0.0683 1.02595,-0.13487 2.23658,-0.43069 0.0954,0.0875 2.82746,3.44023 3.35444,5.11918 0.11288,0.36416 0.74843,2.86335 0.70468,3.93743 -0.0367,0.22935 -0.0622,0.45958 -0.0754,0.69066 -0.077,0.41844 0.0359,0.84123 -0.17157,1.21414 -0.0342,0.0562 -0.49198,0.50421 -0.91477,0.70382 -0.33,0.1594 -1.03382,0.5436 -0.80533,0.89111 0.0805,0.11995 0.4377,0.1541 0.38691,0.27313 -0.0964,0.22234 -0.0752,0.35102 -0.021,0.49107 0.13212,0.45169 0.54096,0.15057 0.89461,0.35191 0.1331,0.42454 0.59002,0.30987 1.05659,-0.0395 0.41406,-0.31076 0.83599,-0.80621 1.05132,-1.28154 0.0324,-0.0691 0.0577,-0.13918 0.0823,-0.20921 0.11641,-0.36592 0.3965,-0.65305 0.48406,-0.97254 0.0936,-0.34578 0.0832,-0.68193 0.063,-1.04257 0.0359,-0.35978 -0.0306,-2.45542 0.18826,-4.57033 0.0954,-0.93401 0.29064,-4.68848 0.26786,-5.49645 -0.0157,-0.51122 -0.7318,-4.28319 -0.14173,-7.11765 0.69594,-3.34304 -1.63254,-4.63335 0.23636,-10.45544 0.9524,-2.97276 -0.69418,-8.05256 -6.11798,-14.49615 -0.81846,-0.97518 -4.26742,-3.80788 -5.4842,-6.83755 -0.30288,-0.750182 -0.56724,-1.483737 -1.42333,-1.538881 -1.14938,-0.07008 -1.15287,1.032929 -0.86663,1.938941 -0.0177,0.17334 0.4937,2.77492 1.35682,3.70019 1.07144,1.14673 3.15395,3.6687 3.89891,4.83818 0.36765,0.57425 0.79221,1.1301 1.22989,1.68072 0.90776,1.24828 1.83303,2.48606 2.73905,3.73434 0.0848,0.16019 0.17589,0.31952 0.25298,0.48145 0.46832,1.01281 1.07669,2.64537 1.00667,4.25606 -0.3449,2.43442 -2.2926,2.44667 -4.2193,2.31098 -2.02999,-0.13997 -5.33537,-0.52961 -8.39217,-0.40617 -1.31307,0.0506 -2.61563,0.37028 -3.83676,0.70205 -2.00375,0.54709 -3.78511,1.1266 -5.02289,0.62238 -1.03118,-0.42018 0.0463,-2.5981 -1.19312,-4.30508 -0.28977,-0.39829 -0.47884,-0.54184 -0.48934,-1.02417 -0.0118,-0.48322 0.82372,-1.36209 0.84298,-2.68391 0.01,-0.69066 -0.12172,-2.0755 -0.15057,-2.37138 -0.0289,-0.29411 -0.49547,-0.50771 -0.79135,-0.48058 -0.29414,0.0289 -0.70468,0.40532 -0.8675,0.64427 -0.16196,0.23987 -1.14499,1.22991 -1.35068,1.39885 -0.2066,0.16981 -1.0067,1.10298 -1.302559,1.13537 -0.29588,0.0341 -2.01774,0.30638 -2.76094,0.30463 -0.74408,0 -2.13765,0.21184 -2.13765,0.21184 0,0 -1.59318,-0.69943 -2.35911,-1.29467 -0.76596,-0.59439 -1.32358,-0.57602 -1.6431,-0.80711 -0.31949,-0.22672 -0.94537,-0.16549 -1.05305,-0.11897 -0.10758,0.0491 -0.41056,0.74846 -0.37466,1.11611 0.0359,0.3694 0.57947,1.7306 0.69239,2.12891 0.11465,0.39655 0.98481,2.05974 1.23167,2.29784 0.24773,0.23373 0.0491,0.49897 -0.0316,0.82023 -0.34665,1.40584 0.18826,3.34655 1.13536,4.73751 0.25124,0.37117 1.75249,1.74112 1.69998,2.62611 -0.01,0.20397 -0.0196,0.40356 -0.0228,0.60401 -0.0701,3.05856 0.70294,5.74245 2.06938,7.2402 1.85667,2.03349 2.23046,3.63368 2.37577,4.11863 0.18218,0.60051 0.0196,1.25703 0.0177,1.89781 -0.006,0.52521 0.0954,1.02243 0.0613,1.47412 -0.0989,1.27541 -0.48145,2.79506 -0.67142,3.89277 0.0137,1.59669 -0.95241,2.42479 -1.16425,3.25026 -0.48759,0.58824 -1.10996,0.0118 -1.78313,0.40006 -0.52346,0.30112 -0.0823,0.27048 -0.25473,0.96116 -0.0805,0.32301 0.38954,0.99003 0.9279,1.03731 0.0718,0.008 0.14351,0.004 0.2171,-0.0157 0.45692,-0.11288 1.03994,-0.16804 1.26841,-0.25825"
           style="fill:#2b2824;fill-opacity:1;fill-rule:nonzero;stroke:none;stroke-width:0.087537"
           id="path12" />
        <path
           d="M 133.82307,84.028374 C 128.9783,75.739779 123.81194,72.991187 117.5411,71.774745 c -3.50351,-0.680015 -7.40524,4.933108 -1.90805,10.100326 3.93695,3.700614 20.00178,5.253723 18.19002,2.153303"
           style="fill:#adc832;fill-opacity:1;fill-rule:evenodd;stroke:none;stroke-width:0.044591"
           id="path444" />
        <path
           d="m 137.44658,48.487487 c -7.90287,0.0147 -11.99992,2.553294 -15.46198,6.509858 -1.9348,2.212165 0.44145,7.313832 6.39569,5.542674 4.26562,-1.267282 12.02492,-12.055202 9.06629,-12.052532"
           style="fill:#adc832;fill-opacity:1;fill-rule:evenodd;stroke:none;stroke-width:0.044591"
           id="path446" />
        <path
           d="M 150.05557,87.721855 C 147.89962,78.331412 143.77312,74.151 138.13192,71.10722 c -3.15394,-1.701159 -6.38232,0.879334 -2.66564,7.476131 2.66385,4.726217 15.39549,12.65362 14.58929,9.138504"
           style="fill:#adc832;fill-opacity:1;fill-rule:evenodd;stroke:none;stroke-width:0.044591"
           id="path448" />
        <path
           d="m 112.69138,45.185069 c -7.60144,2.169806 -10.84901,5.729523 -13.099969,10.482032 -1.258361,2.656292 2.420399,6.916074 7.665199,3.586466 3.75725,-2.383844 8.2779,-14.880053 5.43477,-14.068498"
           style="fill:#adc832;fill-opacity:1;fill-rule:evenodd;stroke:none;stroke-width:0.044591"
           id="path450" />
        <path
           d="m 88.276865,172.79987 c 4.843039,8.28948 10.010255,11.03629 16.279755,12.25363 3.50398,0.67778 7.40614,-4.93623 1.90985,-10.09988 -3.93874,-3.70106 -20.001793,-5.25283 -18.189605,-2.15375"
           style="fill:#adc832;fill-opacity:1;fill-rule:evenodd;stroke:none;stroke-width:0.044591"
           id="path452" />
        <path
           d="m 84.651609,208.33892 c 7.904658,-0.0134 12.000802,-2.55056 15.462851,-6.5103 1.93615,-2.21176 -0.443239,-7.31293 -6.3957,-5.54272 -4.265582,1.27085 -12.024432,12.05757 -9.067151,12.05302"
           style="fill:#adc832;fill-opacity:1;fill-rule:evenodd;stroke:none;stroke-width:0.044591"
           id="path454" />
        <path
           d="m 72.043471,169.10773 c 2.156436,9.39088 6.283339,13.56907 11.924113,16.61463 3.153919,1.69893 6.382758,-0.8829 2.665652,-7.47792 -2.664313,-4.72665 -15.395519,-12.65361 -14.589765,-9.13671"
           style="fill:#adc832;fill-opacity:1;fill-rule:evenodd;stroke:none;stroke-width:0.044591"
           id="path456" />
        <path
           d="m 109.40948,211.64321 c 7.59876,-2.17172 10.84633,-5.73013 13.09773,-10.48345 1.25836,-2.65317 -2.4204,-6.91613 -7.66476,-3.58522 -3.75679,2.38563 -8.27877,14.88018 -5.43297,14.06867"
           style="fill:#adc832;fill-opacity:1;fill-rule:evenodd;stroke:none;stroke-width:0.044591"
           id="path458" />
        <path
           d="m 69.913805,85.696083 c 0.714346,3.845087 -4.085883,2.886825 -5.868631,6.383658 -1.62981,3.197178 0.557826,5.15785 3.932044,3.933383 3.290369,-1.192372 3.503957,-3.697939 5.849902,-2.152413 2.99563,1.975381 -4.56835,-11.688662 -3.913315,-8.164628"
           style="fill:#e04a40;fill-opacity:1;fill-rule:evenodd;stroke:none;stroke-width:0.044591"
           id="path460" />
        <path
           d="m 152.03633,170.95826 c -0.94938,-3.79025 3.89991,-3.1303 5.46462,-6.73236 1.42825,-3.29127 -0.8744,-5.11238 -4.16792,-3.68323 -3.21099,1.39347 -3.26897,3.90886 -5.70675,2.51003 -3.11024,-1.78632 5.28047,11.38366 4.41005,7.90556"
           style="fill:#e04a40;fill-opacity:1;fill-rule:evenodd;stroke:none;stroke-width:0.044591"
           id="path462" />
        <path
           d="m 175.53896,126.78944 c 2.10064,2.60591 5.54446,3.94364 5.86774,8.23018 -1.85055,-2.84446 -5.51013,-3.97574 -5.86774,-8.23018 z m 0.2564,11.8104 c 1.90314,3.55971 4.69988,6.27441 5.80127,10.59128 -1.91071,-2.40436 -3.62432,-4.99554 -5.90074,-7.05253 0.0347,-1.17765 0.0656,-2.35753 0.0995,-3.53875 z m 1.91297,15.99037 c -0.80088,-1.2218 -2.01331,-2.05387 -3.06435,-3.03621 0.12133,-2.16668 0.55206,-4.00428 0.76211,-6.0791 1.53835,2.30892 2.38293,5.27378 2.30224,9.11531 z m -3.39075,-19.37527 c -1.38767,1.29849 -3.64841,1.67127 -4.81183,3.20921 0.0254,-1.39258 0.58951,-3.9637 1.13666,-5.47712 1.1986,-0.3545 2.58627,-1.57897 3.58512,-1.47374 0.39553,0.90208 0.0208,2.53099 0.0901,3.74165 z m -0.19352,6.87906 c -3.56726,1.74396 -6.09337,5.24658 -7.97419,8.73004 -0.94088,-0.84009 -1.54466,-1.60394 -3.23064,-2.35128 0.21981,-0.7915 0.49673,-1.51699 0.24883,-2.33836 0.90116,-3.83038 1.09069,-5.34469 2.21751,-8.01168 0.2671,-0.62339 0.66887,-1.32971 1.13797,-2.09623 0.78748,-0.90297 1.67841,-1.70026 2.91175,-2.13101 -0.31702,1.89066 -1.0608,3.33185 -1.13751,5.47802 -1.47102,1.75554 -3.53339,3.94408 -3.91192,6.18433 1.18924,-1.12102 1.96376,-3.85891 3.45888,-4.03326 -0.0861,1.33327 -0.60776,3.46517 -0.12796,4.52109 0.24524,-1.02247 0.87087,-3.53161 0.94486,-5.67956 1.55316,-1.66147 3.65738,-2.74503 5.62432,-3.97218 -0.21316,2.13012 -0.0439,3.06029 -0.1619,5.70008 z m -24.27669,22.03513 c 0.66708,-0.63899 1.70245,-1.81664 2.81008,-2.35753 0.39201,-0.18996 1.38416,-0.53464 1.41715,-0.28538 -1.56696,0.57879 -2.51275,1.83135 -3.3408,2.78516 -0.30409,-0.009 -0.61581,0.012 -0.88643,-0.14225 z m 0.35669,0.57389 c -0.4205,0.31882 -0.7888,0.41381 -1.16294,0.52885 -0.97343,-0.26041 -1.3475,-1.97717 -0.91412,-2.41951 0.32865,1.14866 1.34577,1.61642 2.07706,1.89066 z m 1.31946,5.4526 c -1.15444,-0.60198 -1.79794,-2.76019 -0.3768,-3.15036 -0.6421,0.87175 0.0509,2.05342 0.3768,3.15036 z m 5.72195,-6.46705 c -1.05462,1.8385 -3.65026,2.94703 -5.66039,3.54187 0.52171,-1.27129 2.0088,-1.12235 3.31353,-1.87683 1.00821,-0.57969 1.59818,-1.25034 2.34686,-1.66504 z m -8.07858,2.85918 c 1.98388,-2.07527 5.36653,-6.57183 8.23956,-5.15294 -0.18017,3.35994 -5.42543,4.7427 -8.23956,5.15294 z m 11.73146,-44.07115 c 0.17658,0.34691 0.94,0.82404 0.4535,1.28199 -0.1271,-0.38036 -0.61222,-1.04343 -0.4535,-1.28199 z m -0.5079,1.32569 c -0.10433,0.0504 -0.29338,-0.0713 -0.34113,-0.17703 -0.33131,-0.71301 -0.48957,-1.61286 -0.24837,-2.20503 0.38039,0.62116 1.41091,1.98208 0.5895,2.38206 z m -0.42806,-2.58851 c -0.2319,-0.53911 -0.96718,-1.2704 -0.705,-1.80862 0.15162,0.59306 0.85707,1.34442 0.705,1.80862 z m -3.92847,-2.94034 c -0.99931,0.58191 -2.70581,0.89806 -3.5731,1.17944 1.02249,-0.54892 2.04717,-1.88799 3.5731,-1.17944 z m -2.53142,5.44011 c 0.29027,-0.37813 0.19484,-0.73174 0.34559,-1.12012 0.62736,-1.6084 0.3772,0.49897 -0.34559,1.12012 z m 3.56103,-4.63613 c -0.86193,1.88754 -1.95487,3.42638 -2.94523,5.12039 0.19438,-2.31339 1.54506,-4.13091 2.94523,-5.12039 z m -0.20069,6.27173 c -0.3112,-1.41086 0.43702,-3.95344 0.99619,-4.91751 -0.24704,1.51655 -0.42137,3.51155 -0.99619,4.91751 z m 1.50276,-5.64969 c 0.26172,1.26282 0.23183,3.85267 -0.8606,4.82654 0.3179,-1.4822 0.39998,-3.25113 0.8606,-4.82654 z M 138.2403,77.992964 c -1.9121,-1.331041 -3.13296,-4.188882 -4.64687,-6.195479 3.50491,0.261298 3.16908,4.163023 4.64687,6.195479 z m -2.95505,-6.595466 c 2.43912,0.366097 4.50549,0.977433 5.90339,2.041386 -2.34503,0.474447 -4.41052,-0.913674 -5.90339,-2.041386 z m 4.15724,2.724962 c 2.56263,-0.533307 4.43681,1.059043 5.50878,2.553293 -2.45207,0.259958 -4.03019,-1.43762 -5.50878,-2.553293 z m 3.36705,3.01079 c 4.2174,0.192189 4.73021,3.932934 5.88957,6.58566 -1.66859,-1.903594 -3.62033,-4.678492 -5.88957,-6.58566 z m 1.98429,3.323828 c 1.20664,0.868629 2.23178,2.914469 3.42773,4.194679 -2.45207,-0.03121 -2.60813,-2.658964 -3.42773,-4.194679 z m -2.53589,0.968959 c -3.1981,-1.206637 -4.17775,-4.958973 -5.16053,-8.057612 1.05769,0.719705 2.13503,1.42737 3.08261,2.219305 0.63228,1.986977 1.03006,4.129573 2.07792,5.838307 z m -1.08624,-4.909033 c 2.62194,1.467051 2.98135,4.451531 4.05377,6.958885 -3.25468,-1.042536 -2.91672,-4.494781 -4.05377,-6.958885 z m -22.26522,0.601986 c 0.53866,1.352891 0.87042,2.847132 1.53393,4.116195 -3.2315,-1.263263 -5.32551,-4.352083 -6.28689,-7.545702 1.65077,1.096942 3.04691,2.366004 4.75296,3.429507 z m -1.81218,-1.970487 c -0.92125,-0.609556 -1.58075,-1.391691 -2.5466,-1.967357 1.75154,0.013 4.47516,0.417817 6.69045,1.023363 -1.28021,0.464637 -3.02729,0.234549 -4.14385,0.943994 z m 4.26871,2.894861 c -1.40953,-0.648366 -2.29378,-1.647199 -3.64666,-2.333905 1.9241,-1.172292 5.58949,-1.224022 7.50958,0.599747 -1.24275,0.646125 -2.83555,0.769194 -3.86292,1.734158 z m 0.50923,0.392398 c 1.15714,-0.593507 2.71916,-1.831358 4.08722,-1.393921 1.14732,0.363867 1.42067,1.896907 2.26523,2.645592 -2.23224,0.708996 -4.69546,0.490497 -6.35245,-1.251671 z m 3.78845,2.360644 c 0.86151,-0.268878 1.96291,-0.797285 2.737,-0.489157 0.944,0.377678 0.87846,1.921428 1.72881,2.393652 -1.4898,-0.144478 -2.79364,-1.472848 -4.46581,-1.904495 z m -0.55739,2.089993 c -3.97886,0.343346 -4.59734,-2.633999 -5.34825,-4.867115 2.50557,0.647456 4.12289,2.951031 5.34825,4.867115 z m -0.90921,-2.087753 c 1.62936,0.338886 3.41078,1.634707 5.11506,2.328989 -0.76967,0.317931 -2.49533,0.172569 -3.2177,-0.04682 -0.84813,-0.615799 -1.0898,-1.638271 -1.89736,-2.282169 z M 96.087884,75.035694 c 0.269328,-0.281818 0.467757,-1.161603 1.061263,-0.854815 -0.319268,0.244359 -0.782125,0.921244 -1.061263,0.854815 z m 1.419781,0.0379 c 0.0825,0.0807 0.0294,0.300988 -0.0531,0.383037 -0.563636,0.546237 -1.361371,0.996164 -1.999467,0.960934 0.458837,-0.561407 1.401941,-1.986087 2.052527,-1.343971 z M 93.7366,81.018475 c 0.881114,0.74868 1.742168,2.25363 2.296435,2.979129 -0.857045,-0.782127 -2.460984,-1.30518 -2.296435,-2.979129 z m -0.003,-3.419248 c 0.511006,-0.337108 0.985013,-1.253902 1.47507,-1.265042 -0.432527,0.398198 -0.878894,1.334162 -1.47507,1.265042 z m 5.975201,4.004284 c -0.452597,-0.148045 -0.754476,0.05751 -1.173193,0.04283 -1.724338,-0.05665 0.346918,-0.518152 1.173193,-0.04283 z m -5.554704,-1.823778 c 2.065006,0.188619 3.880315,0.708555 5.805312,1.082673 -2.246055,0.582806 -4.410061,-0.0896 -5.805312,-1.082673 z m 5.983673,-1.889768 c -1.229374,0.762945 -3.875857,0.898504 -4.97057,0.690266 1.51164,-0.269769 3.453138,-0.767415 4.97057,-0.690266 z m -5.828504,0.455267 c 1.102743,-0.668865 3.556587,-1.49514 4.838578,-0.788365 -1.50494,0.190399 -3.202089,0.700076 -4.838578,0.788365 z M 72.136791,92.156434 c -0.667526,0.64033 -1.702039,1.815748 -2.812362,2.355748 -0.390607,0.190851 -1.384101,0.537325 -1.41531,0.288506 1.566929,-0.579242 2.512253,-1.833586 3.339868,-2.786946 0.304998,0.0076 0.616696,-0.01162 0.887804,0.142692 z m -0.358508,-0.572993 c 0.422277,-0.319717 0.789265,-0.414695 1.162933,-0.528851 0.973873,0.258628 1.348441,1.975387 0.915464,2.417728 -0.328648,-1.147777 -1.344882,-1.614643 -2.078397,-1.888877 z m -1.317671,-5.454383 c 1.154462,0.60332 1.797028,2.760634 0.375457,3.152591 0.643006,-0.874434 -0.0504,-2.05699 -0.375457,-3.152591 z m -5.722373,6.467936 c 1.053683,-1.837596 3.649786,-2.947914 5.659503,-3.538305 -0.520826,1.266391 -2.008387,1.119242 -3.314008,1.873272 -1.007313,0.581027 -1.59725,1.251674 -2.345495,1.665033 z m 8.078567,-2.860068 c -1.984297,2.074821 -5.366534,6.574509 -8.240876,5.153387 0.181489,-3.357262 5.425845,-4.741369 8.240876,-5.153387 z M 61.084443,133.80897 c -0.177469,-0.34736 -0.940424,-0.82449 -0.453487,-1.28288 0.126189,0.3808 0.610456,1.04343 0.453487,1.28288 z m 0.508337,-1.32525 c 0.104349,-0.0517 0.292078,0.0731 0.341578,0.17658 0.330867,0.71257 0.489606,1.61287 0.246138,2.20503 -0.379028,-0.61981 -1.409521,-1.98296 -0.587716,-2.38161 z m 0.426747,2.58718 c 0.232759,0.54 0.967174,1.27263 0.705425,1.81085 -0.151609,-0.59574 -0.857484,-1.34576 -0.705425,-1.81085 z m 3.928914,2.94123 c 0.999284,-0.5837 2.707123,-0.89807 3.573087,-1.17988 -1.021133,0.54936 -2.045397,1.88977 -3.573087,1.17988 z m 2.532774,-5.44056 c -0.289838,0.37947 -0.195309,0.73219 -0.345138,1.12102 -0.627396,1.60929 -0.377237,-0.50031 0.345138,-1.12102 z m -3.560597,4.63658 c 0.861504,-1.8871 1.954427,-3.42593 2.944351,-5.11905 -0.194419,2.31115 -1.54597,4.13091 -2.944351,5.11905 z m 0.201109,-6.27129 c 0.310798,1.41086 -0.437887,3.953 -0.997064,4.91706 0.247479,-1.51699 0.420938,-3.51066 0.997064,-4.91706 z m -1.50451,5.64969 c -0.261749,-1.26371 -0.230979,-3.85312 0.861504,-4.82743 -0.320608,1.48221 -0.401317,3.25203 -0.861504,4.82743 z m 20.127078,41.70694 c 1.911627,1.32881 3.131639,4.1871 4.6464,6.1937 -3.504858,-0.25863 -3.17043,-4.16035 -4.6464,-6.1937 z m 2.954161,6.59502 c -2.439574,-0.36565 -4.506371,-0.97655 -5.903862,-2.04227 2.345055,-0.47267 4.410951,0.91411 5.903862,2.04227 z m -4.157663,-2.72452 c -2.562653,0.53064 -4.435921,-1.06126 -5.508784,-2.55061 2.452504,-0.26308 4.030584,1.43138 5.508784,2.55061 z m -3.365738,-3.00989 c -4.217423,-0.1962 -4.731119,-3.93294 -5.890932,-6.58611 1.668149,1.90404 3.620797,4.67761 5.890932,6.58611 z m -1.985647,-3.3265 c -1.205292,-0.86506 -2.231336,-2.91626 -3.427718,-4.19156 2.450284,0.0312 2.609473,2.65763 3.427718,4.19156 z m 2.537233,-0.96763 c 3.196289,1.20396 4.176853,4.95854 5.159636,8.05761 -1.057703,-0.71791 -2.135016,-1.42691 -3.081239,-2.22063 -0.634536,-1.98431 -1.031394,-4.12913 -2.078397,-5.83698 z m 1.087133,4.90949 c -2.624633,-1.46705 -2.98404,-4.45465 -4.056903,-6.96067 3.256048,1.04342 2.918491,4.49924 4.056903,6.96067 z m 22.263886,-0.60198 c -0.54089,-1.35557 -0.87176,-2.84492 -1.53483,-4.11576 3.23241,1.26192 5.32641,4.35208 6.28646,7.54481 -1.65121,-1.09694 -3.0478,-2.36779 -4.75163,-3.42905 z m 1.81219,1.97092 c 0.92124,0.60644 1.58031,1.38678 2.54614,1.96647 -1.75198,-0.0134 -4.47694,-0.41916 -6.69223,-1.0256 1.28111,-0.46374 3.02818,-0.23187 4.14609,-0.94087 z m -4.26916,-2.89396 c 1.40819,0.64657 2.29332,1.64541 3.64621,2.32766 -1.925,1.1772 -5.587263,1.22625 -7.50869,-0.59753 1.241422,-0.64656 2.833321,-0.76696 3.86248,-1.73013 z m -0.51012,-0.39686 c -1.156245,0.59306 -2.719614,1.83269 -4.086325,1.3957 -1.146883,-0.36119 -1.420671,-1.89512 -2.264346,-2.64425 2.230006,-0.709 4.695,-0.4905 6.350671,1.24855 z m -3.788017,-2.35887 c -0.861495,0.26755 -1.963337,0.79818 -2.737002,0.4905 -0.943984,-0.37903 -0.877995,-1.92187 -1.727899,-2.39454 1.4889,0.14269 2.793182,1.47151 4.464901,1.90404 z m 0.558726,-2.09132 c 3.977971,-0.33889 4.595561,2.63533 5.346921,4.86934 -2.50602,-0.64657 -4.122449,-2.95192 -5.346921,-4.86934 z m 0.907424,2.09132 c -1.629789,-0.33889 -3.409428,-1.6365 -5.114146,-2.33211 0.768755,-0.3166 2.494423,-0.17391 3.217699,0.0491 0.848564,0.61535 1.089802,1.63649 1.896447,2.28306 z m 28.106667,5.76117 c -0.27067,0.28092 -0.46732,1.15937 -1.06037,0.85615 0.31792,-0.24526 0.78212,-0.92304 1.06037,-0.85615 z m -1.41934,-0.0401 c -0.0825,-0.0803 -0.0294,-0.29876 0.0531,-0.37902 0.56362,-0.54848 1.36047,-0.99885 1.99813,-0.96317 -0.45974,0.56185 -1.4024,1.98876 -2.0512,1.34219 z m 3.7711,-5.93953 c -0.8807,-0.75359 -1.74175,-2.25631 -2.29736,-2.98315 0.85837,0.78481 2.46278,1.30652 2.29736,2.98315 z m 0.006,3.41567 c -0.511,0.3389 -0.98501,1.25301 -1.47462,1.26639 0.43298,-0.40132 0.8789,-1.33773 1.47462,-1.26639 z m -5.97475,-4.00428 c 0.4526,0.15161 0.75404,-0.058 1.1723,-0.0446 1.72523,0.058 -0.34558,0.52171 -1.1723,0.0446 z m 5.55516,1.82378 c -2.06546,-0.18728 -3.88121,-0.709 -5.80577,-1.07911 2.24473,-0.58414 4.40784,0.0892 5.80577,1.07911 z m -5.98412,1.89066 c 1.2267,-0.76251 3.87451,-0.89628 4.97011,-0.69116 -1.51386,0.272 -3.45312,0.76697 -4.97011,0.69116 z m 5.8285,-0.45483 c -1.10498,0.66441 -3.55792,1.49381 -4.83947,0.7848 1.50584,-0.18728 3.20297,-0.69561 4.83947,-0.7848 z m 44.32314,-30.2011 c -0.80089,1.48935 -1.2352,3.18871 -2.10024,4.66379 -0.53067,0.9043 -0.92798,1.72968 -1.96158,2.66164 -2.15734,1.93792 -3.14145,4.96789 -3.64044,7.32721 0.81337,-1.61732 2.69824,-6.31098 4.53046,-6.87149 0,1.25657 -0.28536,2.37849 -0.68581,3.41657 -3.22526,4.99197 -8.12361,10.48648 -12.8681,13.37599 -1.85366,-1.58745 -5.43966,-0.46821 -5.952,2.14483 -4.45866,2.47926 -9.23124,-1.55177 -13.42103,2.38562 1.84025,0.93642 3.23463,0.20512 5.12129,-0.44591 1.93123,-0.66441 4.69947,0.0624 6.41978,-0.61535 -0.61269,0.61981 -1.21022,1.11031 -1.8073,1.52055 -5.40532,0.96316 -10.76649,0.49496 -15.14805,-0.34335 -0.29472,-0.65549 -0.81869,-1.01222 -1.36582,-1.3422 -0.36917,-0.75804 -0.42848,-1.48488 -0.7139,-2.60857 -0.30854,-1.21288 -1.04967,-1.92188 -1.67351,-2.76911 -0.1632,-0.22296 -0.20957,-0.56185 -0.45794,-0.70899 -0.58549,-0.34782 -1.41265,0.54846 -0.8138,0.94086 0.27826,0.17837 0.62384,-0.005 0.88336,0.0936 0.9917,0.37011 1.52592,1.60974 1.896,2.9341 -0.85748,-0.59753 -2.032,-2.08687 -3.29081,-2.48818 -0.9217,-0.28985 -1.38233,-0.83386 -2.1261,-0.88291 -0.34692,-0.0223 -0.83431,0.44591 -0.46688,0.89182 0.40846,0.49051 0.98993,-0.28538 1.66682,0.1204 0.31125,0.19174 -0.11504,0.57522 0.2292,0.79372 1.32525,0.0713 1.81843,1.23963 2.63042,1.98876 -1.14019,-0.53955 -2.64113,-1.79256 -4.39757,-1.97984 -0.24257,0 -0.4749,-0.53064 -0.79594,-0.46821 -0.5079,0.10702 -0.75315,0.64657 -0.18149,0.85169 0.43387,0.15607 0.38527,0 0.65192,0.0223 1.52233,0.10702 3.03843,0.69562 4.03237,1.67217 -0.58771,-0.40578 -1.68866,-0.20512 -2.52609,-0.35673 -0.48782,-0.0847 -1.71987,-0.74913 -1.40328,0.0758 0.29074,0.7625 1.52814,0.20512 2.27683,0.27646 1.09872,0.0981 2.14571,0.272 2.71916,0.91858 0.18327,0.20511 0.20556,0.45928 0.32819,0.65994 -1.52948,-0.71345 -3.89281,-1.51163 -6.53081,-1.21287 -0.3991,0.0669 -0.19264,-0.45484 -0.76384,-0.48159 -0.3933,-0.0535 -1.23072,0.42808 -0.70767,0.91858 0.49051,0.45929 1.22358,-0.28093 1.98208,-0.15607 0.27067,0.25417 -0.24748,0.42807 0.11148,0.81156 -1.16027,0.43253 -4.19157,-0.12486 -3.47231,1.30206 0.28449,0.56631 0.69741,-0.45929 1.09158,-0.61982 0.99261,-0.41023 2.21663,-0.37902 3.13833,-0.31659 0.0303,0.40132 -0.93195,0.50387 -0.35094,0.86952 0.34648,0.2185 0.95515,-0.33443 1.43361,-0.33443 1.2985,0.009 2.68796,0.36118 3.89815,0.53955 -1.26594,0.0847 -2.85383,0.47713 -4.2959,0.47713 -1.38946,0 -2.70177,-1.18613 -3.21636,-0.26309 0.53554,0.57076 1.74129,0.25417 2.54125,0.47712 -0.59172,0.53064 -1.46303,0.93641 -2.37938,0.68225 -0.38928,-0.25863 0.46597,-0.5128 0.002,-0.82494 -0.70499,-0.0491 -1.26192,0.55739 -0.92883,0.95425 0.32284,0.46375 0.845,-0.13823 1.3181,0.16945 -0.31658,0.83385 -2.9216,1.56515 -1.79923,2.25185 0.5217,0.31659 0.63764,-0.57969 0.87085,-0.91858 0.38438,-0.57076 1.10809,-0.88736 1.77206,-1.21734 0.41024,-0.0401 0.32819,0.59753 0.67421,0.61536 1.55266,0.0892 3.02908,0.42362 4.78819,-0.31214 -1.18166,0.709 -3.65201,1.87729 -5.1681,1.29314 -0.22028,-0.0847 -0.36253,-0.32105 -0.59708,-0.37456 -0.38839,-0.0847 -0.86373,0.55739 -0.46554,0.89182 0.27915,0.23188 0.71614,0.0268 1.06128,0.0223 1.03808,-0.0179 2.028,-0.16945 3.11558,-0.48604 -0.72818,0.55293 -1.57273,1.01667 -2.3834,1.50717 -0.55114,0.18283 -0.3964,-0.5663 -0.98813,-0.33443 -0.30278,0.24525 -0.65684,0.97208 -0.20245,1.09248 0.27825,0.0714 0.54759,-0.23187 0.83207,-0.33889 0.573,-0.20958 1.14376,-0.42362 1.48266,-0.81156 0.31792,0.23633 0.84589,0.40132 1.30429,0.058 -0.12173,0.57076 -1.08402,1.04343 -1.92277,1.37787 -0.29208,0.11593 -0.66352,0.0981 -0.79061,0.2943 -0.1565,0.24525 0.0187,0.6644 0.21092,0.67778 0.3429,0.0223 0.57389,-0.36118 0.84679,-0.54847 0.44234,-0.30322 0.8664,-0.61982 1.30473,-0.92749 0.54848,-0.37011 -0.46152,0.52171 0.11327,0.80709 1.1937,-0.40577 1.29626,-1.63649 1.89289,-2.4971 1.06795,-0.70899 1.88975,-1.60973 2.58451,-2.59966 0.70632,-0.0179 0.92527,-0.40132 1.32432,-0.65548 4.32446,0.83831 8.84555,1.40015 13.65113,0.7848 -1.04433,0.46821 -2.13236,0.77142 -3.35236,1.05681 -4.6397,1.08802 -9.97768,1.55623 -14.23391,6.59948 1.62134,0.98546 3.06832,-0.94533 4.42564,-1.91296 4.17822,-2.96531 8.99317,-4.06225 13.05763,-5.13689 -2.80748,2.66208 -6.27666,3.64309 -9.19246,4.51261 -0.91498,0.27201 -2.60813,0.42362 -2.60547,1.79702 3.73315,-0.0312 7.82976,-2.26076 11.65522,-5.4089 1.06573,-0.87843 2.06458,-1.47596 3.04424,-1.99768 0.22698,-0.0535 0.45708,-0.11147 0.68673,-0.16498 -3.63866,2.93855 -7.72723,6.40328 -13.06123,8.18692 -2.54079,0.84723 -7.24646,0.97655 -8.998,0.72238 -2.41415,-0.34336 -4.39757,-1.30652 -5.79372,-2.60858 -0.60243,-0.55739 -0.88646,-1.78811 -2.03692,-1.57406 -0.66128,1.0033 0.86151,1.85052 1.72701,2.39453 2.66611,1.67663 7.30357,3.58513 10.67597,2.399 -0.0266,0.13824 -0.1471,0.1427 -0.19797,0.25418 -2.69997,0.8606 -5.67553,2.79127 -9.19155,2.73343 -4.21073,-0.0669 -9.79219,-3.57175 -11.10896,-6.14465 -0.70945,-1.39125 -0.56676,-3.03219 -1.19817,-4.34317 -2.72496,-5.67645 -10.730395,-9.06537 -19.014981,-7.70535 1.813068,6.03318 6.378758,10.11772 13.326051,12.00839 3.12004,0.85169 5.34603,-0.005 7.4855,1.47596 2.42978,1.68108 4.27762,4.27615 7.06769,5.061 -3.37733,0.11603 -7.1921,0.0268 -10.92125,-0.3924 -5.9101,-0.66437 -12.366001,-0.27647 -15.873088,-4.30296 -1.49068,-1.70337 -2.276375,-4.12021 -3.660486,-5.99749 -3.187819,-4.33426 -7.546591,-7.81237 -14.362346,-9.72086 0.526186,8.12003 5.953801,15.7674 17.261217,15.86551 1.52635,1.67662 3.343438,2.41237 5.700523,3.44685 -11.486665,-0.86057 -16.997229,-4.53042 -22.385174,-8.36971 -4.63435,-3.29974 -7.909568,-7.66075 -8.787123,-8.94943 -0.886024,-5.59708 5.023638,-10.36475 0.897175,-16.21823 -1.962008,3.44556 -4.741809,7.51271 -1.199053,12.07126 -0.181488,0.91858 0.091,1.94417 -0.528846,2.75127 -1.794348,-3.48256 -5.083837,-6.08981 -3.395618,-9.34094 0.420497,-0.80799 1.54776,-1.27754 2.040937,-2.02578 1.734598,-2.63354 1.40997,-5.76785 1.229382,-8.84508 -5.070907,2.78605 -3.629277,8.68322 -4.354772,13.13697 -0.216718,-0.45438 -0.451707,-0.9101 -0.693835,-1.36805 -0.692946,-5.08517 0.160079,-9.96522 1.652549,-14.30214 1.596799,-0.80398 3.124939,-1.76982 3.896364,-3.44556 -0.141349,-0.2622 0.0905,-0.42852 -0.156069,-0.71836 -0.691155,-0.19442 -1.355571,-0.21359 -1.998567,-0.12218 0.674206,-1.4394 1.390341,-2.79452 2.110047,-4.03371 0.721035,-0.062 1.229822,-0.43744 1.719878,-0.84322 0.841435,-0.0968 1.54731,0.0879 2.701333,0.19085 1.244532,0.11148 2.161326,-0.3545 3.165959,-0.66307 0.264868,-0.0789 0.598416,-0.0102 0.820035,-0.19575 0.521266,-0.43833 -0.0517,-1.51476 -0.615806,-1.07821 -0.261749,0.20289 -0.205119,0.5886 -0.383038,0.80129 -0.674215,0.81246 -2.023097,0.90565 -3.398738,0.81424 0.851695,-0.60867 2.645593,-1.22447 3.441098,-2.27994 0.579246,-0.77009 1.246772,-1.02604 1.53795,-1.71141 0.136009,-0.32061 -0.145809,-0.93552 -0.685816,-0.7353 -0.599746,0.22206 -0.0615,1.02693 -0.668415,1.53125 -0.281818,0.23009 -0.504777,-0.29965 -0.821375,-0.0477 -0.506997,1.22849 -1.776508,1.30518 -2.753942,1.82155 0.890924,-0.89584 2.571123,-1.89513 3.329618,-3.49059 0.0789,-0.22965 0.659056,-0.27156 0.703646,-0.59574 0.07,-0.51369 -0.356278,-0.92393 -0.740205,-0.4526 -0.292079,0.35539 -0.13066,0.36029 -0.237679,0.60778 -0.607326,1.39971 -1.663689,2.63711 -2.915361,3.24667 0.577006,-0.42049 0.755375,-1.52234 1.174082,-2.26344 0.243019,-0.42941 1.277532,-1.37251 0.392408,-1.34799 -0.815585,0.0219 -0.700535,1.37341 -1.011773,2.05788 -0.461967,1.00241 -0.972534,1.93168 -1.769829,2.25899 -0.255058,0.10478 -0.499417,0.0437 -0.733075,0.0901 1.181222,-1.20484 2.717382,-3.17131 3.312228,-5.75893 0.066,-0.39865 0.488277,-0.0321 0.704536,-0.5614 0.179258,-0.35272 0.004,-1.30385 -0.630966,-0.97209 -0.594836,0.31169 -0.140459,1.249 -0.509667,1.92232 -0.333098,0.17034 -0.321058,-0.37545 -0.800415,-0.1632 -0.0245,-1.2383 1.503611,-3.91376 -0.0812,-3.7082 -0.625606,0.0812 0.204679,0.81067 0.225638,1.23652 0.0557,1.07063 -0.379027,2.21572 -0.740215,3.06563 -0.392847,-0.10523 -0.170779,-1.04745 -0.708555,-0.6216 -0.319268,0.25596 0.002,1.01267 -0.160079,1.46482 -0.434767,1.2218 -1.232052,2.41416 -1.799698,3.49683 0.340227,-1.22045 0.498526,-2.84892 0.974313,-4.2085 0.457067,-1.31321 2.016417,-2.15643 1.312762,-2.9497 -0.714346,0.31793 -0.817355,1.55801 -1.289132,2.2407 -0.305888,-0.73308 -0.396857,-1.69179 0.144479,-2.4708 0.369658,-0.28092 0.328638,0.60912 0.778115,0.27558 0.279138,-0.6488 -0.110139,-1.37608 -0.592616,-1.19059 -0.548016,0.14805 -0.148039,0.84099 -0.597966,1.18613 -0.683126,-0.57745 -0.510127,-3.27655 -1.52903,-2.44493 -0.474447,0.38616 0.335328,0.79461 0.580136,1.12726 0.408007,0.55026 0.469547,1.33952 0.557826,2.0726 -0.0968,0.40265 -0.669755,0.11415 -0.802634,0.43387 -0.599746,1.43449 -1.404621,2.71738 -1.295372,4.62008 -0.275128,-1.34888 -0.557836,-4.06626 0.494517,-5.30277 0.152949,-0.18149 0.425397,-0.23545 0.552486,-0.44012 0.208679,-0.33711 -0.238568,-0.99883 -0.684475,-0.73396 -0.313028,0.18549 -0.265318,0.66351 -0.375458,0.99349 -0.325518,0.9859 -0.513246,1.96825 -0.575226,3.10041 -0.278688,-0.86997 -0.437437,-1.8202 -0.633196,-2.7477 0.012,-0.58236 0.669766,-0.18639 0.644346,-0.82271 -0.129319,-0.36609 -0.696065,-0.94176 -0.959604,-0.55248 -0.163209,0.23945 0.0339,0.59172 0.0392,0.89717 0.008,0.61134 0.0201,1.21823 0.273338,1.6686 -0.324178,0.22206 -0.655036,0.66441 -0.485147,1.21065 -0.499866,-0.305 -0.625616,-1.36806 -0.660395,-2.27236 -0.012,-0.31259 0.128429,-0.65727 -0.0169,-0.84099 -0.178359,-0.23009 -0.634526,-0.20289 -0.709446,-0.0263 -0.132879,0.31436 0.148049,0.66084 0.236339,0.98055 0.140899,0.51637 0.298758,1.02247 0.444567,1.53884 0.165879,0.63944 -0.341568,-0.60778 -0.802635,-0.16275 -0.0107,1.26281 1.118793,1.76893 1.733249,2.61526 0.314378,1.2432 0.888254,2.31428 1.592799,3.30019 -0.214928,0.67243 0.0745,1.00597 0.178369,1.46482 -0.850354,1.45634 -1.672169,2.95237 -2.421304,4.51038 -3.276998,0.94757 -5.790152,4.97548 -6.993664,6.8318 -0.130209,-3.81744 1.700709,-7.79139 0.156519,-11.79924 0.890924,-2.61393 1.415761,-5.61402 2.502454,-8.01882 1.140192,-1.08936 2.581373,-1.62846 3.627476,-3.04646 -1.413091,0.32596 -2.239806,1.27575 -3.587797,1.67127 0.0205,-1.14777 0.943104,-3.57576 -0.0861,-3.93918 -0.294298,1.0372 -0.539107,3.34344 -1.116563,4.69099 -1.238292,1.12503 -2.856951,2.2902 -4.300362,3.33541 0.281818,-2.91314 0.981004,-5.71301 1.845178,-7.3165 3.241769,-6.00865 7.262553,-9.99554 12.876126,-9.80559 0.854814,0.80978 1.651649,0.62071 2.206366,0.7313 0.704535,1.19058 1.014443,3.60073 2.051636,5.1195 0.490497,0.72282 -0.321058,1.70606 0.751805,2.6126 1.908498,1.60973 3.639076,-0.14805 3.177109,-1.26461 -0.661725,-1.59904 -2.387844,-1.00062 -3.095059,-1.73281 -1.122803,-1.16115 -1.785429,-2.51717 -2.163116,-4.52466 1.888427,0.89004 5.229196,2.50558 7.717829,3.14055 0.884685,0.22831 1.819758,1.55802 2.832872,1.72523 1.384101,0.23187 2.137246,-1.62757 1.46392,-2.69464 -1.111653,-1.75644 -2.637113,0.48961 -3.882544,0.28494 -2.635333,-0.42941 -5.153837,-1.27843 -7.022204,-3.41479 1.147322,-0.60822 2.559083,-0.56808 3.824575,-0.57388 0.680015,-0.005 1.184342,1.03272 2.245165,1.05547 0.807985,0.0183 1.890217,-1.35958 1.049223,-2.11808 -1.351551,-1.21689 -2.250505,0.23767 -3.280119,0.32195 -1.717198,0.14046 -3.625696,0.65683 -4.667349,0.49407 2.107376,-2.65629 4.826098,-4.98885 8.506194,-4.29814 0.623836,0.11862 0.809335,1.17765 2.408365,1.63471 0.711675,0.20289 1.4675,-0.52528 1.196832,-1.48756 -0.350488,-1.25746 -2.461434,-0.44769 -3.464288,-0.64255 -4.085433,-0.79417 -6.893785,1.9892 -9.340049,4.57504 -1.577629,-0.17078 -2.224645,0.13645 -2.398104,0.46509 -2.214845,0.24302 -4.409611,0.46241 -6.742626,1.57094 4.268712,-4.06983 9.445739,-8.29484 14.677154,-11.15981 1.942838,0.18015 2.274155,-1.17855 3.405428,-1.65834 3.844205,0.56452 7.040484,-0.14716 9.908585,-1.50674 1.126823,-0.53465 2.415944,0.25863 2.725862,-0.95692 0.228749,-0.89628 -0.588606,-1.59681 -1.040763,-1.47374 -1.349771,0.37011 -0.874874,1.39883 -1.712299,1.8706 -2.479263,1.39793 -5.399534,1.76447 -8.648443,1.64942 0.639886,-0.85749 2.015967,-1.39569 3.127619,-2.03959 0.604207,-0.34826 1.64363,0.16722 1.990107,-0.79595 0.336218,-0.92482 -0.388837,-1.491133 -1.087582,-1.22982 -0.922584,0.34692 -0.393738,0.91991 -1.031834,1.4764 -1.224032,1.06484 -2.879251,1.65389 -4.032373,1.43584 2.816821,-2.77357 4.214302,-6.022026 7.056534,-8.318021 0.466427,0.357171 1.549539,0.507892 2.159105,-0.07135 0.475337,-0.448589 0.213589,-1.841169 -0.973423,-1.874162 -1.132173,-0.03034 -0.788375,0.931951 -1.763579,1.776508 -2.439584,2.111386 -4.53803,6.052345 -7.018194,7.953265 -0.346917,-1.77205 0.244809,-3.580218 1.076433,-5.107016 0.549807,-1.007756 1.59992,-0.0084 1.57986,-1.438508 -0.0102,-0.97922 -0.838315,-1.331936 -1.385891,-0.907876 -0.823595,0.637653 -0.403997,1.419779 -0.679116,2.078392 -0.703205,1.683316 -1.42291,3.816998 -1.49648,5.429858 -2.675022,-2.852942 -0.862834,-9.051545 2.188086,-11.813076 0.618036,-0.556491 1.57807,-0.194857 2.324535,-0.273339 1.644069,-0.177024 1.013993,-2.217518 0.0945,-2.269689 -1.431371,-0.07937 -1.275312,0.783912 -2.015517,1.609297 -3.787565,1.856769 -5.474444,9.804241 -3.577986,13.245777 -0.566757,0.91278 -1.807729,1.28289 -1.63114,2.48061 -5.636763,3.2703 -10.874439,7.32185 -15.735757,12.11539 0.457057,-1.88976 1.097833,-4.51395 2.099796,-7.22866 0.915894,-0.73352 0.952014,-1.64452 1.199053,-2.34281 2.077056,-1.03363 4.54116,-1.00866 6.560687,-2.54392 0.403107,-0.30679 1.378311,0.012 1.975837,-0.82762 0.577446,-0.81066 -0.344688,-1.93168 -1.109433,-1.84963 -1.410861,0.15072 -1.126813,1.2811 -1.253452,2.24516 -1.378311,0.94087 -4.274502,2.01017 -6.470167,2.16088 -0.149829,-0.82048 -0.245259,-0.82315 -0.161869,-1.68866 0.191748,-1.97717 1.52948,-4.06626 2.658962,-5.4633 0.462417,-0.568985 1.840718,-0.908326 2.347285,-1.630252 0.502537,-0.718806 -0.211359,-1.772496 -1.276202,-1.547757 -1.233832,0.260409 -0.637206,1.571836 -1.42557,2.774455 -0.635426,0.966734 -2.059667,2.953714 -3.038441,5.753584 -0.346477,-3.17533 1.019794,-6.453662 3.219029,-8.579319 0.497187,-0.483368 1.457681,0.06153 2.014177,-1.061714 2.496214,0.23589 5.838312,-0.812003 7.60412,-3.306877 0.827165,0.240346 1.064833,1.642289 1.300722,2.078839 1.108983,-1.183447 0.640776,-3.352362 -0.935074,-4.108177 0.399087,-0.344242 0.590836,-0.599304 1.028713,-1.205301 -0.779895,-0.241235 -1.216442,-0.08026 -1.860777,-0.06019 0.634525,-2.32186 -1.442531,-3.917331 -2.379385,-3.331403 0.741105,0.809328 1.278872,1.889323 0.534647,2.638902 -0.616246,0.621152 -1.849198,0.70231 -2.741012,1.167841 -2.238026,1.167394 -3.531177,3.012574 -3.537417,4.703023 -0.877105,0.563629 -1.121913,1.135731 -1.277982,2.003923 -0.696955,1.041645 -3.503517,2.76197 -3.646656,8.652893 -0.470877,-2.04405 -0.498077,-5.059296 0.0977,-7.172023 0.223399,-0.794166 1.481761,-0.557387 1.58922,-2.370019 0.0299,-0.505662 -0.904754,-0.940425 -1.445201,-0.536429 -1.41442,1.059927 -0.420047,1.531255 -0.712555,2.934984 -0.660846,3.172657 -0.597526,6.665927 0.377237,9.099257 -1.307411,-0.42227 -2.316954,-1.09872 -2.832431,-1.89244 0.424507,-0.80443 0.812005,-1.60483 1.171412,-2.37671 -0.585036,0.37368 -1.070183,0.91546 -1.50762,1.55222 -0.127979,-0.79595 0.218039,-1.44252 -0.915904,-1.74708 -0.614016,-0.16544 -1.177212,0.73575 -1.036743,1.2053 0.213589,0.70364 0.847674,0.87353 1.46972,1.31766 -1.068853,1.8376 -1.940597,4.1336 -3.544986,5.58191 -1.121023,1.01356 -2.445824,1.91921 -3.802286,2.25453 0.300538,-1.59279 1.319902,-2.83911 2.089097,-4.27093 0.798615,-1.48846 1.233832,-3.18916 2.099346,-4.662 0.529737,-0.90387 0.927044,-1.73058 1.962897,-2.66343 2.155086,-1.93659 3.14055,-4.967447 3.639086,-7.324976 -0.814684,1.616424 -2.700002,6.310526 -4.53001,6.871486 0.003,-1.258805 0.284038,-2.379382 0.684466,-3.419246 3.225268,-4.988846 8.124496,-10.485147 12.868545,-13.37822 1.854098,1.591015 5.440555,0.472669 5.952911,-2.142598 4.457321,-2.476151 9.23214,1.555334 13.421023,-2.383402 -1.842498,-0.936404 -3.234639,-0.205119 -5.121287,0.445467 -1.930797,0.665746 -4.700339,-0.0624 -6.420228,0.613576 0.611796,-0.618476 1.209762,-1.108983 1.806838,-1.51967 5.405775,-0.962274 10.76696,-0.490497 15.147591,0.340678 0.294748,0.660395 0.820475,1.015783 1.366271,1.343531 0.370108,0.761177 0.429417,1.488011 0.714346,2.610813 0.307238,1.211538 1.050123,1.922321 1.674399,2.768658 0.162759,0.224739 0.207348,0.561849 0.457947,0.709003 0.583706,0.345577 1.41042,-0.55115 0.813784,-0.938199 -0.280028,-0.181042 -0.625166,0.0029 -0.884234,-0.09632 -0.991703,-0.366981 -1.52502,-1.60795 -1.895127,-2.93677 0.857044,0.599755 2.032016,2.089988 3.290828,2.489077 0.919914,0.293412 1.382321,0.836083 2.125206,0.884687 0.347368,0.02272 0.833415,-0.446803 0.467767,-0.889143 -0.409347,-0.493183 -0.990363,0.282256 -1.667709,-0.12441 -0.309908,-0.189065 0.116379,-0.574779 -0.228749,-0.791045 -1.326141,-0.07135 -1.818878,-1.244541 -2.630432,-1.990993 1.141092,0.54178 2.641572,1.795234 4.397131,1.981624 0.243908,-0.0017 0.473997,0.531971 0.794618,0.466871 0.50966,-0.104786 0.75447,-0.643897 0.18327,-0.850355 -0.43343,-0.154731 -0.38661,-0.0035 -0.65193,-0.02231 -1.52234,-0.109249 -3.03799,-0.694281 -4.033264,-1.673952 0.588606,0.405782 1.689109,0.207798 2.525644,0.356732 0.487816,0.08829 1.72121,0.751804 1.40283,-0.07491 -0.289838,-0.762059 -1.52591,-0.205562 -2.276825,-0.273344 -1.098722,-0.100776 -2.145276,-0.276911 -2.717372,-0.918576 -0.183719,-0.207348 -0.204239,-0.461962 -0.329538,-0.662181 1.53126,0.713461 3.893705,1.510303 6.532595,1.214221 0.3991,-0.06956 0.19041,0.450369 0.76252,0.478905 0.39329,0.05306 1.23205,-0.42852 0.70809,-0.917685 -0.4896,-0.459283 -1.22313,0.280037 -1.98161,0.155627 -0.27157,-0.255958 0.24836,-0.42674 -0.11327,-0.808879 1.1616,-0.433877 4.19201,0.122619 3.47453,-1.305191 -0.28626,-0.564067 -0.69784,0.460637 -1.09247,0.623836 -0.99305,0.405777 -2.21751,0.374567 -3.137878,0.315697 -0.0321,-0.404877 0.931958,-0.507886 0.350037,-0.873974 -0.346027,-0.216268 -0.953803,0.336208 -1.43405,0.333538 -1.298042,-0.004 -2.686613,-0.360298 -3.897255,-0.538667 1.265492,-0.0816 2.853382,-0.473546 4.296352,-0.475786 1.389004,-0.001 2.699994,1.187462 3.216804,0.262198 -0.53688,-0.568536 -1.74129,-0.255058 -2.541698,-0.474007 0.591278,-0.533307 1.463478,-0.935064 2.380278,-0.682686 0.38749,0.255069 -0.46643,0.511907 -0.003,0.825825 0.70543,0.0459 1.26148,-0.560506 0.92705,-0.955134 -0.32106,-0.466427 -0.84322,0.139119 -1.31767,-0.169449 0.31794,-0.837424 2.92339,-1.568269 1.80059,-2.253635 -0.52127,-0.318828 -0.63721,0.578346 -0.87132,0.921254 -0.38392,0.565856 -1.10942,0.885134 -1.77249,1.212432 -0.41068,0.0424 -0.32818,-0.593066 -0.67288,-0.612236 -1.552661,-0.0901 -3.029512,-0.424957 -4.79042,0.309908 1.183452,-0.706775 3.653796,-1.875948 5.16811,-1.293591 0.22295,0.0852 0.36386,0.322838 0.59885,0.376797 0.3884,0.0838 0.86196,-0.557836 0.46643,-0.890044 -0.27959,-0.234098 -0.71658,-0.0294 -1.06483,-0.0236 -1.034967,0.0187 -2.024881,0.168559 -3.112904,0.485597 0.726386,-0.553816 1.57139,-1.019353 2.381155,-1.50985 0.551149,-0.180599 0.398649,0.568536 0.990819,0.334878 0.30143,-0.241689 0.65727,-0.968074 0.20244,-1.088473 -0.27869,-0.074 -0.54802,0.228758 -0.83429,0.334438 -0.572558,0.210908 -1.144214,0.422717 -1.482662,0.811114 -0.317038,-0.231878 -0.845894,-0.397307 -1.303841,-0.0544 0.122179,-0.572107 1.085343,-1.045224 1.924107,-1.375641 0.292518,-0.11772 0.663066,-0.0999 0.791045,-0.297418 0.156071,-0.242579 -0.0187,-0.664406 -0.212249,-0.677346 -0.341577,-0.0214 -0.573006,0.357618 -0.846794,0.547586 -0.440557,0.305888 -0.865064,0.622036 -1.304732,0.929274 -0.548466,0.370548 0.462407,-0.522606 -0.111479,-0.809774 -1.196382,0.407557 -1.298041,1.639609 -1.894227,2.501563 -1.067063,0.708546 -1.887988,1.60706 -2.584494,2.597423 -0.705445,0.0179 -0.923483,0.401328 -1.324361,0.653266 -4.324002,-0.836085 -8.845092,-1.398381 -13.652011,-0.781685 1.044324,-0.468647 2.134136,-0.775435 3.354138,-1.060373 4.63837,-1.085793 9.975475,-1.55445 14.234377,-6.597697 -1.622229,-0.987243 -3.07056,0.946674 -4.428351,1.910288 -4.176852,2.96575 -8.992241,4.064023 -13.057164,5.141346 2.810131,-2.663872 6.277529,-3.643096 9.19379,-4.51485 0.914564,-0.272449 2.608583,-0.423168 2.605453,-1.795679 -3.732716,0.0312 -7.830189,2.258986 -11.656104,5.409345 -1.065283,0.876214 -2.065017,1.47686 -3.04424,1.996347 -0.226069,0.0517 -0.456167,0.111029 -0.685356,0.168549 3.637286,-2.942571 7.72763,-6.407298 13.060275,-8.189157 2.540803,-0.848564 7.246952,-0.975203 8.998931,-0.725055 2.412824,0.346918 4.397129,1.310982 5.793719,2.609033 0.60243,0.557836 0.88469,1.792118 2.03648,1.57183 0.66174,-0.997944 -0.86239,-1.846958 -1.7288,-2.393205 -2.66387,-1.675289 -7.303121,-3.584226 -10.673769,-2.394534 0.0268,-0.142249 0.146699,-0.147159 0.196649,-0.256408 2.700432,-0.860155 5.676442,-2.790942 9.19067,-2.733432 4.21341,0.0642 9.79399,3.572196 11.11121,6.145549 0.70988,1.390351 0.56719,3.033081 1.19905,4.344062 2.72496,5.672434 10.72817,9.063585 19.01363,7.70579 -1.81307,-6.034961 -6.37874,-10.120394 -13.32782,-12.013732 -3.11736,-0.849014 -5.34558,0.005 -7.48462,-1.47374 -2.42976,-1.679749 -4.27628,-4.274502 -7.06679,-5.057527 3.37777,-0.118159 7.19031,-0.0285 10.92036,0.389287 5.91011,0.667086 12.36779,0.277809 15.87483,4.300812 1.48934,1.707389 2.27595,4.124233 3.65871,6.000171 3.18828,4.334712 7.54752,7.811916 14.36323,9.723092 -0.52702,-8.123602 -5.95512,-15.768302 -17.26163,-15.866402 -1.3123,-1.44207 -3.09417,-2.568003 -5.08873,-3.551237 9.59375,1.826008 18.93829,6.20441 22.0405,8.788903 4.3726,3.638196 7.64335,7.345938 8.51868,8.630611 0.88735,5.599305 -5.02367,10.365644 -0.89452,16.220894 1.95931,-3.443765 4.74136,-7.514035 1.19815,-12.071692 0.18062,-0.91635 -0.0914,-1.946406 0.52753,-2.749491 1.79523,3.480783 5.08471,6.088472 3.39514,9.340496 -0.41916,0.807548 -1.54639,1.276644 -2.04046,2.026668 -1.73505,2.629983 -1.41044,5.767399 -1.22896,8.845089 5.07228,-2.78784 3.6275,-8.685901 4.35388,-13.13966 0.21761,0.454831 0.4535,0.911888 0.6943,1.368945 0.69297,5.086507 -0.15832,9.966105 -1.65258,14.302595 -1.595,0.80263 -3.12579,1.76937 -3.89591,3.44421 0.14184,0.26219 -0.0901,0.43031 0.15565,0.71792 0.69158,0.19486 1.35554,0.21493 1.99769,0.12352 -0.67336,1.43984 -1.38992,2.79496 -2.10965,4.03504 -0.71921,0.0602 -1.22936,0.43521 -1.71759,0.84277 -0.84234,0.0968 -1.54732,-0.0879 -2.7009,-0.19129 -1.2459,-0.11148 -2.16267,0.3545 -3.16775,0.66262 -0.26398,0.0794 -0.59755,0.0107 -0.81962,0.19531 -0.52037,0.43878 0.0503,1.5161 0.61535,1.07821 0.26311,-0.20244 0.20606,-0.58815 0.38351,-0.8013 0.67603,-0.81334 2.02266,-0.90609 3.39917,-0.81334 -0.85255,0.60778 -2.6465,1.22358 -3.44062,2.27994 -0.58014,0.77054 -1.24635,1.02604 -1.53928,1.71051 -0.13468,0.32106 0.14756,0.93508 0.68666,0.73487 0.59934,-0.22028 0.0602,-1.02783 0.66841,-1.52992 0.28137,-0.23187 0.50482,0.3001 0.82047,0.046 0.5079,-1.22715 1.77789,-1.30295 2.75396,-1.82199 -0.89,0.89628 -2.57067,1.8969 -3.32912,3.49326 -0.0794,0.22742 -0.65818,0.27156 -0.70367,0.59485 -0.0709,0.51369 0.35675,0.92392 0.74152,0.45215 0.28987,-0.35628 0.12843,-0.36074 0.23635,-0.60643 0.60823,-1.40017 1.66459,-2.63712 2.9158,-3.24847 -0.57702,0.42005 -0.75626,1.52412 -1.17364,2.26434 -0.24432,0.4303 -1.27883,1.37251 -0.39461,1.34933 0.81557,-0.0228 0.70142,-1.37341 1.01447,-2.05744 0.45968,-1.00464 0.97115,-1.9348 1.76759,-2.26077 0.2564,-0.10613 0.50072,-0.0437 0.73215,-0.0887 -1.1812,1.20352 -2.71471,3.16998 -3.31,5.75671 -0.0664,0.39909 -0.48869,0.033 -0.70452,0.56185 -0.18016,0.35361 -0.006,1.30473 0.63008,0.97209 0.59615,-0.31125 0.14132,-1.24811 0.50922,-1.92232 0.33444,-0.1699 0.32328,0.37724 0.80176,0.16365 0.0231,1.23695 -1.5045,3.91331 0.0816,3.70863 0.62517,-0.0821 -0.20426,-0.81111 -0.22611,-1.23606 -0.0555,-1.07108 0.37859,-2.21662 0.74158,-3.06653 0.39148,0.10479 0.16941,1.04878 0.70679,0.62294 0.31968,-0.25819 0,-1.014 0.16051,-1.4666 0.43517,-1.22224 1.23248,-2.41461 1.79967,-3.49595 -0.34067,1.22091 -0.49806,2.84848 -0.97342,4.20807 -0.45882,1.31276 -2.01776,2.15642 -1.31322,2.94746 0.71348,-0.31615 0.81562,-1.55756 1.28918,-2.23847 0.30495,0.73353 0.39686,1.69045 -0.1445,2.4708 -0.3701,0.28225 -0.32906,-0.60956 -0.77944,-0.27424 -0.27785,0.64791 0.11057,1.3743 0.59349,1.19058 0.54714,-0.14982 0.14895,-0.84232 0.59662,-1.1888 0.684,0.57925 0.51148,3.27879 1.52946,2.44538 0.47402,-0.38482 -0.33484,-0.79238 -0.57923,-1.12503 -0.408,-0.55159 -0.47043,-1.34041 -0.55828,-2.07572 0.0977,-0.40043 0.67111,-0.11326 0.80267,-0.43075 0.59887,-1.43539 1.40327,-2.71738 1.29536,-4.62231 0.27467,1.34933 0.55651,4.06716 -0.49632,5.305 -0.15248,0.18015 -0.42496,0.235 -0.552,0.43878 -0.2078,0.33711 0.23854,0.99795 0.68579,0.73441 0.31259,-0.1846 0.26444,-0.66485 0.37548,-0.99483 0.32547,-0.9859 0.51275,-1.96735 0.57523,-3.09952 0.27958,0.86997 0.43698,1.8211 0.63274,2.74771 -0.0127,0.58102 -0.668,0.18638 -0.64349,0.82403 0.12797,0.36476 0.69562,0.93954 0.9596,0.55115 0.16144,-0.23945 -0.0358,-0.59128 -0.0399,-0.89628 -0.008,-0.61134 -0.0185,-1.21912 -0.27427,-1.66949 0.32507,-0.22295 0.65593,-0.6653 0.48472,-1.21065 0.50032,0.30411 0.6265,1.3685 0.66037,2.27147 0.0133,0.31348 -0.12664,0.65772 0.0179,0.84322 0.17791,0.22786 0.63407,0.20289 0.70765,0.0241 0.13554,-0.31437 -0.1467,-0.65906 -0.23363,-0.98056 -0.14271,-0.51547 -0.30056,-1.02158 -0.44414,-1.53795 -0.16721,-0.63943 0.33934,0.60689 0.80082,0.16276 0.011,-1.26282 -1.11699,-1.76803 -1.7332,-2.61616 -0.31438,-1.24186 -0.88781,-2.31472 -1.59234,-3.30063 0.21623,-0.67065 -0.074,-1.00419 -0.1793,-1.46348 0.85083,-1.455 1.67349,-2.95238 2.42265,-4.5095 3.27746,-0.94934 5.78923,-4.97547 6.99234,-6.83135 0.13017,3.8161 -1.69985,7.79051 -0.15652,11.79925 -0.88914,2.61259 -1.4149,5.61312 -2.502,8.01748 -1.1393,1.0898 -2.5805,1.62801 -3.62837,3.04646 1.41437,-0.32641 2.24023,-1.27486 3.58912,-1.67039 -0.0191,1.14689 -0.94313,3.57532 0.0865,3.9374 0.29247,-1.03719 0.53951,-3.34344 1.11566,-4.68964 1.23785,-1.12638 2.85869,-2.29065 4.29942,-3.33675 -0.28044,2.91402 -0.98006,5.71345 -1.84382,7.31695 -3.24266,6.01088 -7.26252,9.99598 -12.87569,9.80647 -0.85434,-0.80933 -1.65118,-0.62116 -2.20769,-0.73263 -0.70319,-1.19059 -1.01399,-3.59761 -2.04896,-5.11728 -0.49315,-0.72327 0.31976,-1.70739 -0.75401,-2.61303 -1.90717,-1.61108 -3.63732,0.14803 -3.17532,1.2637 0.66303,1.59904 2.38647,1.00063 3.09371,1.73326 1.1237,1.15982 1.78678,2.51672 2.16445,4.52332 -1.88886,-0.89093 -5.22967,-2.50468 -7.71826,-3.13966 -0.88602,-0.22785 -1.81933,-1.55801 -2.83424,-1.72701 -1.38276,-0.22964 -2.13724,1.62802 -1.46391,2.69642 1.11346,1.756 2.63847,-0.48827 3.88256,-0.28627 2.63623,0.43075 5.15337,1.28021 7.02397,3.41657 -1.14821,0.60688 -2.55999,0.56675 -3.825,0.57478 -0.68095,0.004 -1.18479,-1.03541 -2.2452,-1.05726 -0.808,-0.0174 -1.89065,1.36048 -1.05012,2.11718 1.35247,1.21824 2.25098,-0.23632 3.28058,-0.3206 1.71632,-0.14002 3.62617,-0.65862 4.66646,-0.49452 -2.10515,2.65807 -4.82478,4.99019 -8.50527,4.29858 -0.62344,-0.11727 -0.808,-1.17542 -2.40751,-1.6347 -0.71256,-0.20289 -1.46796,0.52528 -1.19814,1.48755 0.35137,1.25791 2.46275,0.4477 3.46427,0.64122 4.08498,0.79417 6.89333,-1.98831 9.34095,-4.57415 1.5772,0.17257 2.22421,-0.13601 2.39767,-0.4633 2.21527,-0.24391 4.40827,-0.46331 6.74306,-1.57139 -4.26873,4.06804 -9.44707,8.29483 -14.67715,11.15847 -1.94417,-0.17881 -2.27329,1.1781 -3.40634,1.65745 -3.84466,-0.56274 -7.04051,0.14894 -9.90816,1.50896 -1.12722,0.53421 -2.41726,-0.25863 -2.72494,0.95559 -0.22831,0.89717 0.58725,1.59815 1.03896,1.47463 1.35114,-0.36966 0.87534,-1.39883 1.71367,-1.87104 2.47836,-1.39749 5.39907,-1.76447 8.64705,-1.64943 -0.63851,0.85883 -2.01503,1.39793 -3.12671,2.0396 -0.60331,0.3487 -1.64228,-0.16722 -1.98966,0.79595 -0.3353,0.92616 0.38928,1.49113 1.08584,1.22982 0.92388,-0.34558 0.39374,-0.92214 1.03358,-1.47507 1.22451,-1.06617 2.88014,-1.65656 4.03286,-1.43628 -2.81684,2.77223 -4.21614,6.02158 -7.0579,8.31713 -0.46552,-0.35762 -1.54998,-0.50566 -2.15953,0.0722 -0.47357,0.44769 -0.21363,1.83938 0.97387,1.87283 1.13167,0.0294 0.78835,-0.93106 1.76355,-1.77517 2.44045,-2.11184 4.54028,-6.0528 7.01911,-7.95416 0.34599,1.77071 -0.24485,3.58066 -1.07734,5.10613 -0.54893,1.00864 -1.59992,0.009 -1.57986,1.43984 0.0116,0.97699 0.83788,1.33238 1.38721,0.90654 0.8232,-0.63676 0.4031,-1.41844 0.6787,-2.07527 0.70273,-1.6851 1.42333,-3.82056 1.49645,-5.43209 2.67592,2.85428 0.86376,9.05066 -2.18717,11.81218 -0.61939,0.55739 -1.57853,0.1962 -2.32629,0.27558 -1.64367,0.17569 -1.01406,2.21885 -0.0941,2.2679 1.4309,0.0803 1.2753,-0.78035 2.01595,-1.60885 3.78802,-1.85766 5.474,-9.80469 3.5771,-13.24578 0.56807,-0.91367 1.80771,-1.28199 1.63292,-2.48016 5.63589,-3.27031 10.87267,-7.32275 15.7353,-12.11718 -0.45882,1.89155 -1.10052,4.51574 -2.1011,7.23223 -0.9155,0.73307 -0.95249,1.6414 -1.2,2.33835 -2.07527,1.0363 -4.53889,1.01088 -6.55977,2.5466 -0.40223,0.30634 -1.37651,-0.0143 -1.97631,0.82717 -0.57609,0.81066 0.34472,1.93079 1.11035,1.84963 1.41177,-0.15205 1.12728,-1.2811 1.253,-2.24426 1.3783,-0.94132 4.27497,-2.01061 6.46931,-2.16045 0.14982,0.82004 0.24612,0.82182 0.16184,1.68689 -0.19172,1.97851 -1.52905,4.06715 -2.65807,5.46241 -0.4624,0.5721 -1.84163,0.9101 -2.34641,1.63292 -0.50165,0.71747 0.21138,1.7716 1.27577,1.54776 1.2334,-0.26041 0.63679,-1.57318 1.42559,-2.7758 0.63321,-0.96762 2.05834,-2.95416 3.03753,-5.75314 0.34871,3.17444 -1.01804,6.45322 -3.21856,8.58022 -0.49766,0.48158 -1.45634,-0.0629 -2.01284,1.05993 -2.49848,-0.23544 -5.83831,0.81245 -7.60503,3.30687 -0.82759,-0.23856 -1.06394,-1.64273 -1.30028,-2.07794 -1.10896,1.18434 -0.64164,3.35102 0.93463,4.10728 -0.39778,0.3438 -0.5913,0.59886 -1.02827,1.20708 0.77944,0.23991 1.21555,0.0794 1.86077,0.0571 -0.63407,2.3232 1.44299,3.91956 2.37942,3.33095 -0.74205,-0.80709 -1.27977,-1.8862 -0.53559,-2.63979 0.61674,-0.61535 1.85014,-0.70008 2.74281,-1.16472 2.23717,-1.16784 3.53028,-3.01167 3.53611,-4.70391 0.87706,-0.56274 1.12058,-1.13484 1.27751,-2.00303 0.69609,-1.04254 3.50311,-2.76063 3.64755,-8.65156 0.46997,2.04316 0.49853,5.05796 -0.099,7.17114 -0.2238,0.79238 -1.48171,0.55828 -1.58876,2.36867 -0.0301,0.50611 0.90521,0.94221 1.44611,0.53555 1.4131,-1.05905 0.41957,-1.52993 0.71256,-2.9341 0.65725,-3.17266 0.59615,-6.66592 -0.37726,-9.09926 1.30652,0.42139 2.31606,1.10006 2.83153,1.89334 -0.4227,0.80487 -0.81245,1.60528 -1.17185,2.37849 0.58459,-0.37546 1.0711,-0.91635 1.50721,-1.55445 0.12842,0.79595 -0.21676,1.44386 0.91856,1.74887 0.61355,0.16454 1.17542,-0.73709 1.03404,-1.2062 -0.2127,-0.70543 -0.84677,-0.87442 -1.46969,-1.31856 1.07065,-1.83625 1.9406,-4.13359 3.54589,-5.5828 1.12144,-1.01222 2.44715,-1.91786 3.80135,-2.25229 -0.2987,1.59324 -1.319,2.83688 -2.08682,4.26915 z m 0.61401,1.80059 c -0.35275,0.39017 -0.73846,0.74601 -1.09116,1.13708 0.0869,-1.10497 0.90382,-2.80523 1.88933,-3.7412 -0.25196,0.8838 -0.5146,1.74976 -0.79817,2.60412 z m -3.21013,7.31918 c 0.23676,-2.75662 1.31902,-4.61874 2.78114,-6.07821 -0.73621,2.03781 -1.62177,4.03237 -2.78114,6.07821 z m 3.16597,-1.43003 c -0.91099,0.3759 -1.79701,1.39258 -2.54929,1.9348 1.30612,-2.21617 2.36647,-4.42477 3.16689,-6.6075 0.0133,1.4501 -0.46865,3.25202 -0.6176,4.6727 z m -21.17854,30.83206 c 0.91637,-2.54615 2.27191,-5.07447 3.88882,-7.5894 -1.11301,2.53723 -1.55535,5.11014 -3.88882,7.5894 z m 1.83361,1.80148 c 0.0185,-1.48043 -0.0509,-3.83484 1.47234,-5.58281 0.079,1.89067 -0.6755,3.73674 -1.47234,5.58281 z m -4.60716,-7.17917 c 0.5413,-1.45367 2.42883,-2.84491 3.22573,-4.28966 0.25594,-0.39686 0.48067,-0.13823 0.71076,-0.0669 -0.32327,1.49825 -2.50824,2.90734 -3.93649,4.35654 z m -5.72282,3.66539 c 2.47432,-2.48818 5.06776,-5.38214 7.9497,-8.01748 0.15294,-0.058 0.30674,-0.11593 0.46107,-0.17836 -2.32947,3.25069 -4.85998,6.76893 -8.41077,8.19584 z m 5.00754,-7.83465 c 0.53558,-0.58415 1.987,-2.2251 2.81772,-1.98877 -0.95557,1.03006 -1.87014,1.15491 -2.81772,1.98877 z M 55.338561,150.46551 c 0.857484,-0.90654 2.199235,-1.51297 3.579776,-2.17203 -1.241422,3.68545 -1.927227,7.75795 -1.568719,12.44983 10e-4,0.0205 0.005,0.0397 0.007,0.0606 -2.179166,-3.96013 -4.418092,-7.80166 -2.017747,-10.33844 z m -2.461424,-13.68055 c -0.559177,0.89005 -1.227152,1.92812 -1.701159,3.03264 -0.334878,-1.62624 -0.397747,-3.55079 -0.270668,-5.47043 1.204862,-0.99617 2.633553,-1.75377 4.126913,-2.4427 -0.513687,1.83224 -1.053243,3.77776 -1.682429,5.63498 -0.143579,-0.25195 -0.294748,-0.50165 -0.472657,-0.75449 z m -2.250515,4.85463 c -0.0339,0.23233 -0.0513,0.46599 -0.0562,0.70009 -0.837865,-1.64764 -0.944434,-4.0569 -1.56916,-5.88291 0.329978,-0.50967 0.707656,-0.96673 1.121913,-1.38767 -0.115049,2.23847 0.0285,4.45688 0.588606,6.16383 -0.0299,0.13644 -0.0638,0.27067 -0.0852,0.40666 z m -2.609473,-12.0989 c 1.54419,-1.73905 3.385357,-3.16596 4.097033,-5.78658 0.655936,-0.37189 1.313201,-0.80085 1.949517,-1.27575 -0.872644,1.3899 -1.762688,2.88727 -2.387404,4.40605 -0.632746,1.54151 -1.245872,4.29724 -1.486221,7.16578 -0.493626,0.36431 -0.954253,0.70811 -1.344871,1.02426 -0.615806,-1.52412 -0.498527,-3.73986 -0.828054,-5.53376 z m -7.155174,2.55508 c 1.925618,0.22072 3.639397,1.84116 5.856952,2.42664 0.846335,2.17471 1.236242,3.7519 1.58807,5.65147 -3.04968,-2.15463 -5.465405,-4.91126 -7.445022,-8.07811 z m 5.715333,-21.28779 c -1.53978,-2.30625 -2.383174,-5.27067 -2.301355,-9.11308 0.798985,1.22268 2.012177,2.05342 3.06377,3.03665 -0.122309,2.16623 -0.553726,4.00473 -0.762415,6.07643 z m -6.000981,10.45706 c 1.850168,2.84357 5.510294,3.97663 5.868582,8.23285 -2.102066,-2.60813 -5.545484,-3.94587 -5.868582,-8.23285 z m 5.611344,-3.58111 c -1.902978,-3.55748 -4.70004,-6.27219 -5.801212,-10.59128 1.910767,2.40569 3.624226,4.99554 5.900291,7.05297 -0.0339,1.17988 -0.066,2.36021 -0.0991,3.53831 z m 4.52813,6.81842 c -0.704535,1.41265 -1.768478,3.02729 -2.749482,4.15009 -0.329128,-0.9975 -0.171459,-2.20859 -0.118609,-2.7312 0.957813,-0.53911 1.609289,-1.19861 2.868091,-1.41889 z m -3.05105,-3.43039 c 1.387361,-1.2985 3.648576,-1.67217 4.812838,-3.21101 -0.0254,1.39258 -0.589936,3.96415 -1.137962,5.47802 -1.198162,0.35449 -2.586273,1.57897 -3.582577,1.47329 -0.397127,-0.90208 -0.0223,-2.53144 -0.0923,-3.7403 z m 0.194099,-6.8813 c 3.568176,-1.74262 6.09382,-5.2448 7.972888,-8.73094 0.943103,0.84144 1.545529,1.60528 3.232408,2.35307 -0.220278,0.79016 -0.497186,1.51566 -0.249258,2.33881 -0.901634,3.82993 -1.089373,5.34558 -2.218415,8.01034 -0.266199,0.62472 -0.668416,1.33105 -1.137963,2.09757 -0.786585,0.90386 -1.676629,1.69981 -2.911801,2.13012 0.318388,-1.88978 1.062163,-3.33141 1.137073,-5.47624 1.4724,-1.75778 3.534286,-3.94542 3.914204,-6.18701 -1.189682,1.12057 -1.963337,3.86069 -3.458927,4.03326 0.0843,-1.33104 0.607336,-3.46562 0.127089,-4.5193 -0.244809,1.02068 -0.870865,3.53161 -0.945774,5.67822 -1.55356,1.6628 -3.655586,2.74592 -5.621333,3.97396 0.211088,-2.13101 0.0418,-3.06028 0.159809,-5.70186 z m 1.51119,-7.44359 c 0.352717,-0.39285 0.739325,-0.75002 1.093373,-1.13931 -0.0874,1.10542 -0.906534,2.80523 -1.891548,3.74165 0.251938,-0.88514 0.515917,-1.74976 0.798175,-2.60234 z m 3.210119,-7.320968 c -0.236329,2.756178 -1.318112,4.619188 -2.780252,6.079098 0.736635,-2.03914 1.620439,-4.03415 2.780252,-6.079098 z m -3.16419,1.430038 c 0.910105,-0.37724 1.796129,-1.394363 2.548384,-1.935253 -1.306962,2.216623 -2.366455,4.425213 -3.165069,6.607503 -0.0156,-1.4492 0.465966,-3.25203 0.616685,-4.67225 z M 70.594961,70.025417 c -0.918134,2.545703 -2.272815,5.072236 -3.890125,7.58673 1.112543,-2.538573 1.55622,-5.108357 3.890125,-7.58673 z m -1.834038,-1.802379 c -0.0183,1.479981 0.0513,3.835725 -1.47195,5.581024 -0.0803,-1.887098 0.673765,-3.735836 1.47195,-5.581024 z m 4.60715,7.177833 c -0.541777,1.454561 -2.430214,2.844912 -3.227049,4.288322 -0.254618,0.400878 -0.477577,0.139569 -0.710345,0.0678 0.323287,-1.49826 2.508253,-2.910011 3.937394,-4.356102 z m 5.721932,-3.665836 c -2.472133,2.489074 -5.067776,5.381255 -7.948358,8.017038 -0.154739,0.0584 -0.307238,0.117269 -0.461077,0.178359 2.328995,-3.249349 4.858199,-6.768036 8.409435,-8.195397 z m -5.007577,7.836439 c -0.535986,0.585486 -1.986987,2.226437 -2.817711,1.988316 0.956033,-1.028712 1.871037,-1.152681 2.817711,-1.988316 z m 92.562202,26.248096 c -0.85793,0.90743 -2.19878,1.51343 -3.57848,2.17292 1.24057,-3.68767 1.92677,-7.75929 1.56917,-12.45161 -0.006,-0.02098 -0.006,-0.04011 -0.007,-0.0593 2.1774,3.958352 4.41717,7.80076 2.01642,10.338 z m 2.46184,13.68189 c 0.55916,-0.89093 1.2267,-1.9299 1.70026,-3.03309 0.33442,1.62401 0.39777,3.55035 0.27067,5.47088 -1.20438,0.99483 -2.63356,1.75332 -4.12689,2.44315 0.5146,-1.83359 1.05457,-3.77821 1.6824,-5.63855 0.14358,0.25328 0.29658,0.50433 0.47356,0.75761 z m 2.25051,-4.85508 c 0.0353,-0.23277 0.0509,-0.46508 0.0578,-0.70142 0.83609,1.64809 0.94135,4.0569 1.56784,5.88514 -0.32998,0.50922 -0.70857,0.96584 -1.12144,1.38633 0.11416,-2.23803 -0.0295,-4.45732 -0.58859,-6.16427 0.0295,-0.13422 0.0624,-0.27023 0.0847,-0.40578 z m 2.60859,12.09711 c -1.54154,1.74084 -3.3849,3.1682 -4.09527,5.78704 -0.65678,0.37367 -1.31496,0.8013 -1.95036,1.27753 0.87175,-1.39169 1.76268,-2.88772 2.38785,-4.40738 0.63228,-1.54107 1.2445,-4.29635 1.48576,-7.16713 0.49316,-0.36208 0.95423,-0.70632 1.34484,-1.02247 0.61541,1.52501 0.49987,3.73897 0.82718,5.53241 z m 0.1708,3.62214 c -0.95827,0.53911 -1.61153,1.19727 -2.86904,1.41666 0.70546,-1.41354 1.76899,-3.0264 2.74997,-4.14787 0.3286,0.99528 0.173,2.20771 0.11907,2.73121 z m 6.98565,-6.17497 c -1.92545,-0.22118 -3.64045,-1.84295 -5.85842,-2.42888 -0.84632,-2.17382 -1.23607,-3.75011 -1.58564,-5.64969 3.04828,2.15464 5.46422,4.90993 7.44406,8.07857 z m -61.37965,79.08716 c -0.0718,-1.22171 -0.85035,-1.96202 -1.33372,-2.9073 0.92749,-1.47606 2.18049,-2.46593 3.45938,-3.42464 0.30098,1.78364 -0.89718,5.11023 -2.12566,6.33194 z m -0.90029,0.84722 c -0.49274,1.34661 -2.90869,2.14925 -3.77242,2.77808 -0.0192,-2.76466 0.96272,-4.55735 2.66298,-6.07782 1.02159,0.70459 1.49068,2.25623 1.10944,3.29974 z m -7.2804,0.47708 c 0.54758,-2.41679 2.03157,-3.42896 4.30883,-3.26402 -0.62739,1.56506 -2.23802,3.24173 -4.30883,3.26402 z m 2.57648,2.55512 c -0.67824,0.63315 -1.7016,0.75354 -2.45118,1.27972 0.32463,-1.40462 1.95265,-2.44796 2.78204,-3.70539 0.22563,0.58401 -0.27289,1.6542 -0.33086,2.42567 z m -3.97352,1.56506 c 0.38304,-0.82931 0.66843,-1.80594 0.86641,-2.91167 0.52929,-0.60653 1.39883,-0.71346 2.11183,-1.04789 -0.64344,1.11023 -1.85677,2.95626 -2.97824,3.95956 z m 8.21145,-9.67609 c -0.76474,1.53821 -2.27727,1.96183 -4.17015,1.81918 1.20663,-0.87845 1.99366,-2.38562 4.17015,-1.81918 z m 2.22331,-2.35009 c 0.30501,0.49501 -1.36537,1.10586 -1.68778,1.86846 -0.73931,-0.2498 -1.22892,-0.1249 -1.75018,-0.0536 0.97698,-0.8516 2.32898,-1.15486 3.43796,-1.81481 z m -24.056439,5.97084 c -0.337558,-0.5931 -0.0731,-1.58753 -0.288058,-2.2564 1.183442,-1.22171 2.446264,-2.31874 3.515557,-3.70993 -0.386607,2.28302 -1.973157,4.36542 -3.227499,5.96633 z m -6.581647,-2.32328 c 1.300272,-2.22956 3.588687,-2.30982 6.740836,-1.46259 -1.298491,2.27865 -3.932934,1.44029 -6.740836,1.46259 z m 2.975121,4.25394 c 0.792825,-1.72113 1.349321,-2.94738 2.811461,-3.84808 0.803085,2.04664 -1.121462,3.79912 -2.811461,3.84808 z m -3.862935,0.99893 c 0.811565,-0.92299 2.884601,-1.54727 3.914655,-2.75123 -0.0633,2.04232 -2.125657,2.67547 -3.914655,2.75123 z m -1.47328,-2.19839 c 1.070173,-0.16494 1.963787,-0.60198 3.413437,-0.20953 -1.246761,1.1282 -2.848481,1.72113 -4.424771,2.35882 0.278249,-0.80264 0.705876,-1.38232 1.011334,-2.14929 z m 6.455898,-2.24729 c -1.163833,1.55163 -3.20343,1.80139 -5.698303,1.36889 0.928384,-1.90399 3.235529,-1.75247 5.698303,-1.36889 z m 5.402204,-5.09681 c -0.601536,0.86502 -1.407291,1.43146 -2.051636,2.23842 -1.356012,-0.19611 -2.952371,-0.74462 -4.123333,-0.66886 1.685979,-1.07469 3.779985,-1.54727 6.174969,-1.56956 z M 66.524438,182.33344 c -0.707216,-0.91857 -1.237402,-2.56844 -1.62936,-3.39338 0.676446,0.94533 2.135466,1.78811 1.62936,3.39338 z m -6.12058,-1.14153 c 2.318294,-0.10256 4.295022,1.0033 5.454384,2.26523 -1.981617,-0.6109 -3.648886,-1.49826 -5.454384,-2.26523 z m 3.706425,5.41782 c 0.507887,-0.30322 1.138403,-1.1237 1.706049,-0.93195 -0.571206,0.22741 -1.224022,1.02113 -1.706049,0.93195 z m -2.510933,0.75359 c -0.0629,-0.0981 0.0343,-0.29876 0.131989,-0.36119 0.665746,-0.41916 1.5375,-0.69116 2.155086,-0.53063 -0.566756,0.45929 -1.784528,1.65433 -2.287075,0.89182 z m 0.165879,0.94979 c 0.362977,-0.17391 0.956923,-0.74021 1.214212,-0.61536 -0.321048,0.2185 -0.696506,1.03888 -1.214212,0.61536 z m -1.254342,-3.7189 c 1.51297,0.12486 3.277448,-0.0178 4.897438,0.23188 -1.218672,0.42361 -3.789795,0.72683 -4.897438,-0.23188 z m 4.108173,-0.17391 c -1.53706,-0.0491 -3.538307,0.0312 -5.007137,-0.35672 1.359581,-0.4905 3.978414,-0.0758 5.007137,0.35672 z m -2.660303,-3.70105 c 1.676179,0.4147 -0.445467,0.43699 -1.154462,-0.19621 0.411127,0.23634 0.749135,0.0981 1.154462,0.19621 z M 102.24145,53.009028 c 0.0718,1.217782 0.8508,1.962457 1.33194,2.903771 -0.92571,1.47597 -2.1805,2.469004 -3.45893,3.425047 -0.30099,-1.781868 0.89762,-5.109256 2.12699,-6.328818 z m 0.90074,-0.849015 c 0.49139,-1.348431 2.90645,-2.151075 3.77241,-2.778471 0.0179,2.769551 -0.96406,4.55676 -2.66298,6.07821 -1.02292,-0.703646 -1.49247,-2.256305 -1.10943,-3.299739 z m 7.27861,-0.473116 c -0.54714,2.411494 -2.03023,3.426377 -4.30795,3.260058 0.6274,-1.56247 2.23669,-3.240879 4.30795,-3.260058 z m -2.57514,-2.559524 c 0.67734,-0.633196 1.69982,-0.753585 2.45162,-1.278871 -0.32551,1.40417 -1.95265,2.446714 -2.78203,3.705965 -0.22653,-0.585036 0.27156,-1.655219 0.33041,-2.427094 z m 3.97307,-1.564259 c -0.38215,0.829394 -0.66797,1.804608 -0.86596,2.90824 -0.52974,0.608667 -1.39882,0.713006 -2.11273,1.051004 0.64301,-1.110313 1.85589,-2.955941 2.97869,-3.959244 z m -8.21323,9.676716 c 0.76473,-1.54151 2.27904,-1.963787 4.17239,-1.819318 -1.20753,0.877994 -1.99368,2.383835 -4.17239,1.819318 z m -2.2202,2.347275 c -0.30545,-0.491837 1.36449,-1.105863 1.68689,-1.866138 0.73976,0.247928 1.22759,0.125299 1.74931,0.0504 -0.97566,0.854364 -2.32766,1.154902 -3.4362,1.815748 z m 24.05556,-5.968521 c 0.33666,0.591276 0.0736,1.58433 0.28851,2.256755 -1.18345,1.220012 -2.44761,2.318295 -3.51735,3.708206 0.38839,-2.281735 1.97494,-4.364142 3.22884,-5.964961 z m 6.58167,2.322755 c -1.30028,2.227765 -3.58964,2.310715 -6.73864,1.4608 1.29671,-2.276825 3.93162,-1.43806 6.73864,-1.4608 z m -2.97695,-4.253542 c -0.79193,1.722098 -1.34841,2.94836 -2.80921,3.847764 -0.80488,-2.048516 1.12057,-3.799605 2.80921,-3.847764 z m 3.8643,-0.998844 c -0.8107,0.923924 -2.88459,1.54508 -3.91511,2.749492 0.0624,-2.039597 2.127,-2.674582 3.91511,-2.749492 z m 1.47374,2.196556 c -1.0711,0.168109 -1.96336,0.605106 -3.41346,0.208238 1.24589,-1.123692 2.84846,-1.718538 4.42387,-2.353514 -0.27779,0.802194 -0.70632,1.382321 -1.01041,2.145276 z m -6.4559,2.249625 c 1.16202,-1.5549 3.20163,-1.801038 5.69785,-1.371631 -0.92886,1.904487 -3.23602,1.754668 -5.69785,1.371631 z m -5.40356,5.095417 c 0.60332,-0.866405 1.40952,-1.428251 2.05386,-2.234456 1.35646,0.192189 2.94926,0.741105 4.12243,0.665296 -1.68597,1.076433 -3.78219,1.54687 -6.17629,1.56916 z M 156.272,74.394468 c 0.73136,0.897174 1.30745,2.532323 1.72078,3.346118 -0.70182,-0.924374 -2.18451,-1.727909 -1.72078,-3.346118 z m 2.29249,-4.339152 c -0.499,0.314358 -1.10544,1.152673 -1.6798,0.978764 0.56679,-0.242128 1.19508,-1.056363 1.6798,-0.978764 z m 2.48905,-0.825384 c 0.0664,0.0959 -0.0243,0.299648 -0.12172,0.364747 -0.65286,0.438778 -1.51611,0.735316 -2.13949,0.586377 0.55425,-0.471327 1.73858,-1.701149 2.26121,-0.951124 z m -0.19132,-0.943994 c -0.35807,0.183709 -0.93642,0.767415 -1.19727,0.649686 0.3153,-0.229199 0.66799,-1.057253 1.19727,-0.649686 z m 1.3556,3.682776 c -1.51386,-0.0856 -3.27388,0.109699 -4.89969,-0.0985 1.20532,-0.457497 3.76663,-0.829385 4.89969,0.0985 z m -4.10059,0.287168 c 1.53749,0.009 3.53426,-0.130659 5.01338,0.217609 -1.34491,0.528846 -3.9731,0.185048 -5.01338,-0.217609 z m 4.30393,3.10889 c -2.31427,0.168549 -4.32179,-0.883355 -5.51635,-2.110937 1.9963,0.557387 3.68945,1.396141 5.51635,2.110937 z m -1.54373,0.517706 c -1.68604,-0.369667 0.43604,-0.450377 1.16201,0.166319 -0.42003,-0.228298 -0.75267,-0.0789 -1.16201,-0.166319 z m 21.26812,67.815012 c 0.31305,-0.98858 0.103,-2.99518 0.89227,-3.71265 0.6747,2.74235 0.88914,5.74645 2.333,7.93677 -0.14179,-3.55971 -1.08844,-6.19326 -2.10423,-9.11174 -0.87712,-2.51584 -1.04075,-5.58949 -2.14884,-7.5359 -1.69668,-2.98225 -5.97165,-4.85195 -5.85484,-8.62392 2.62957,0.83163 4.64953,2.23581 6.78681,3.53519 1.06348,1.86346 1.39258,4.42344 2.98314,5.79059 -0.46864,-2.53545 -1.06572,-3.20253 -1.43363,-4.96075 1.2178,0.34914 2.36468,1.13305 3.90397,1.09381 -0.83921,-1.43805 -3.39561,-1.25479 -4.65664,-2.29555 -1.21873,-1.9076 -2.06903,-3.59626 -3.38849,-5.40577 -1.87638,-2.57469 -4.56525,-3.96281 -6.09737,-6.22358 -1.34756,-1.99188 -2.37185,-3.93784 -3.47814,-6.08 -0.64257,-1.79345 -1.13526,-3.55792 -0.63673,-5.18549 0.85209,0.43298 1.91695,0.0201 2.74858,0.5293 2.83286,3.97841 6.26505,5.61223 10.34778,4.66199 -2.3312,-2.40524 -3.825,-4.09747 -6.40059,-4.84749 -2.41415,-0.70455 -4.94425,-0.24615 -7.28886,-1.34353 -1.03942,-4.18131 -3.73761,-8.188711 -6.01442,-12.379381 2.32449,1.159367 4.64368,0.932842 6.36851,2.975116 0.63406,0.750469 0.76695,2.1484 1.38275,3.231071 1.68957,2.970659 4.08898,4.389544 7.11807,4.693214 -0.42761,-2.557748 -1.97805,-5.312586 -3.04649,-6.030946 -2.29594,-1.545081 -5.17475,-3.008119 -7.91849,-4.21698 -3.06296,-1.344865 -5.03834,-0.927494 -6.36358,-4.327564 0.72059,0.05751 1.48269,-0.0437 2.27461,-0.272009 2.90245,3.692141 10.23541,-0.209578 9.78238,-4.467577 -3.1459,1.39882 -7.14842,0.389277 -9.30257,3.91197 -1.19816,-0.172117 -2.60323,0.455722 -3.6645,-0.252385 -1.17589,-1.723441 -1.9125,-3.345222 -8.05582,-8.562383 -2.59523,-2.202346 -6.32393,-4.55899 -10.33442,-6.459018 0.25906,-0.0102 0.53552,-0.0268 0.83961,-0.0549 4.19562,-0.383928 9.13495,0.908764 12.70175,2.764642 0.16948,0.701865 0.57749,0.999293 1.05683,1.41889 0.22651,0.816915 0.15253,1.54152 0.22964,2.698213 0.0847,1.248102 0.68719,2.079726 1.1478,3.02461 0.1204,0.251048 0.1048,0.589046 0.32194,0.779455 0.51368,0.447697 1.48889,-0.286278 0.96898,-0.776775 -0.24126,-0.226529 -0.61182,-0.109699 -0.85083,-0.252388 -0.90873,-0.539997 -1.21063,-1.857218 -1.33369,-3.230179 0.73442,0.744675 1.62131,2.421744 2.78824,3.04289 0.85169,0.453497 1.20711,1.070633 1.92949,1.253912 0.33802,0.0838 0.90164,-0.291189 0.61934,-0.792835 -0.31346,-0.557387 -1.02336,0.0999 -1.61772,-0.420048 -0.26981,-0.244808 0.21935,-0.548026 -0.0794,-0.819584 -1.29178,-0.310358 -1.56645,-1.554 -2.22954,-2.437344 1.02429,0.741545 2.27237,2.245605 3.96685,2.747252 0.23768,0.0388 0.3701,0.605996 0.69874,0.601086 0.51859,-0.0116 0.85702,-0.496737 0.33265,-0.803085 -0.39912,-0.232768 -0.37947,-0.0713 -0.63766,-0.139569 -1.4764,-0.382147 -2.8632,-1.232052 -3.66315,-2.373144 0.50564,0.503436 1.62488,0.506116 2.42038,0.806664 0.46195,0.173009 1.55443,1.047433 1.39259,0.176579 -0.14849,-0.800415 -1.46484,-0.477127 -2.19029,-0.678235 -1.06398,-0.298308 -2.06058,-0.659496 -2.50692,-1.395251 -0.14357,-0.236339 -0.11952,-0.488727 -0.20201,-0.709896 1.37294,0.978774 3.55391,2.189426 6.20216,2.374035 0.40622,0.001 0.10745,0.477117 0.66528,0.607776 0.37594,0.121729 1.28826,-0.199769 0.86198,-0.773655 -0.40044,-0.540887 -1.25479,0.0544 -1.97764,-0.206459 -0.22161,-0.300098 0.31883,-0.375457 0.0358,-0.813784 1.21773,-0.218949 4.09966,0.874434 3.6502,-0.656826 -0.1779,-0.608226 -0.7692,0.325958 -1.18525,0.413357 -1.05052,0.221169 -2.24918,-0.0312 -3.14411,-0.254618 0.0416,-0.402658 1.00775,-0.330418 0.50211,-0.795955 -0.30143,-0.275568 -0.99931,0.160089 -1.46975,0.07 -1.27484,-0.238119 -2.57824,-0.840095 -3.73581,-1.232942 1.26011,0.147149 2.89169,0.0482 4.30885,0.307678 1.36848,0.246588 2.44357,1.656559 3.11688,0.837874 -0.42269,-0.656836 -1.66459,-0.565416 -2.41328,-0.923934 0.67783,-0.418707 1.60934,-0.657266 2.46455,-0.243468 0.33623,0.321508 -0.55066,0.418267 -0.15247,0.812004 0.68447,0.173019 1.34264,-0.323277 1.08445,-0.770984 -0.23144,-0.519037 -0.85435,-0.0174 -1.26641,-0.405768 0.46379,-0.765635 3.15885,-1.014453 2.17832,-1.892007 -0.45621,-0.407118 -0.73134,0.455717 -1.02115,0.749575 -0.48114,0.488276 -1.2508,0.671545 -1.96337,0.874434 -0.41021,-0.0343 -0.21624,-0.645226 -0.55159,-0.725495 -1.51165,-0.369218 -2.90419,-0.965394 -4.7672,-0.560507 1.29045,-0.481137 3.93337,-1.185232 5.31746,-0.338457 0.20288,0.123519 0.2979,0.382597 0.51951,0.477126 0.36652,0.152949 0.95024,-0.391507 0.61933,-0.789704 -0.23276,-0.280029 -0.69828,-0.159189 -1.03896,-0.216719 -1.02648,-0.168549 -2.0262,-0.199759 -3.15434,-0.0856 0.81643,-0.411578 1.731,-0.715236 2.61656,-1.053244 0.5757,-0.0785 0.28854,0.632306 0.91279,0.507447 0.34201,-0.183719 0.82093,-0.833404 0.39466,-1.033613 -0.26085,-0.123519 -0.57789,0.126189 -0.87892,0.179249 -0.60239,0.103009 -1.20039,0.209138 -1.60436,0.529746 -0.27161,-0.284938 -0.76117,-0.545346 -1.27444,-0.289398 0.22519,-0.542226 1.25658,-0.832514 2.14214,-1.006423 0.30813,-0.062 0.67066,0.0232 0.83076,-0.148929 0.19751,-0.210029 0.10075,-0.657726 -0.0865,-0.703656 -0.32953,-0.0847 -0.62916,0.248819 -0.93284,0.384828 -0.48651,0.221168 -0.96273,0.455277 -1.44963,0.679115 -0.60558,0.264879 0.54753,-0.432527 0.0358,-0.817794 -1.24808,0.186388 -1.57142,1.379651 -2.31248,2.118076 -1.17901,0.506107 -2.14751,1.239182 -3.01083,2.089096 -0.69828,-0.107909 -0.98277,0.229639 -1.42021,0.404878 -4.22099,-1.64986 -6.70022,-3.282789 -14.12024,-2.758402 -0.33171,0.0241 -0.60863,0.0549 -0.83562,0.0905 -4.22318,-1.875938 -8.65468,-3.176219 -12.35796,-3.231959 1.54819,-0.350488 3.07498,-1.060823 4.50502,-1.56158 1.00463,-0.349597 2.7361,-0.381697 2.84627,-1.785428 -1.2597,-0.442337 -1.92944,0.733075 -2.87569,1.193702 -4.27672,2.080627 -9.73156,2.336125 -15.77053,1.880408 2.40302,-0.500757 3.45849,-3.824135 5.85616,-4.419871 1.37028,-0.338888 2.71961,-0.0138 3.86694,-0.265758 5.02674,-1.097833 8.41656,-5.280926 10.75002,-10.642561 -1.9388,-0.509227 -3.49641,-0.903854 -5.13869,-0.719255 -4.22946,0.483367 -9.55408,4.58887 -10.52795,9.514848 -0.0896,0.445017 0.009,0.999733 -0.13645,1.43762 -0.7799,2.342815 -4.01453,4.59422 -6.64585,4.705699 -2.27504,0.0977 -4.83992,-0.680905 -7.25587,-0.401327 2.09578,-0.803085 4.21342,-2.567553 5.63186,-4.757869 0.48916,-0.758485 1.5375,-2.502893 -0.008,-2.935871 -1.07108,0.750915 -0.39508,1.997677 -0.72729,2.938551 -0.4294,1.221792 -2.77534,2.865421 -3.91018,3.483457 -3.10622,1.682869 -7.99519,1.845628 -11.226259,2.627753 1.371621,-1.303841 2.234906,-3.367068 3.11736,-5.399094 6.632929,-1.809509 12.770899,-5.783463 13.248009,-15.137331 -5.83831,2.370904 -12.28841,3.880754 -13.853105,11.499594 -0.181929,0.890034 0.114149,2.646923 -0.185499,3.922675 -0.619816,2.641582 -2.827072,4.958977 -4.836798,5.939531 -2.575584,1.260592 -6.516538,2.208155 -8.884772,3.542767 -3.03665,1.712298 -7.942118,5.172126 -11.256577,7.63533 2.609923,-2.455184 5.221176,-5.255946 7.146174,-7.346372 3.809865,-1.60395 8.072767,-1.445211 11.617764,-4.60314 -3.10667,-1.881308 -6.448768,1.264602 -9.711947,2.671002 2.776242,-3.04379 5.660843,-5.091406 8.405865,-7.071703 1.50183,-1.084453 3.490597,-1.945508 4.111303,-3.744316 -5.244805,0.697856 -12.372689,12.20726 -18.410769,13.870949 1.910277,-2.272805 4.984837,-3.879424 6.727016,-5.738872 0.484697,-0.517707 1.341301,-1.316321 0.909214,-2.177386 -4.54874,0.10167 -6.970485,6.629807 -9.908595,9.021231 2.704002,-3.794705 6.433157,-9.18309 11.173196,-12.292429 1.746179,-1.146883 3.903945,-1.58967 4.69633,-3.312229 -1.760899,-0.701865 -3.634616,1.52948 -5.492284,3.07189 -2.392315,1.987417 -4.953178,4.109063 -6.10853,5.815122 -0.0432,0.0834 -0.091,0.166319 -0.12932,0.250598 -0.0357,0.0335 -0.0709,0.0638 -0.107019,0.0968 0.0664,-0.113259 0.156069,-0.233209 0.236339,-0.347358 0.887364,-1.774288 2.308475,-3.424597 3.355028,-5.236776 0.962273,-1.665479 2.085526,-3.587356 1.559799,-5.276025 -1.755108,0.600646 -2.132346,2.819051 -2.825741,4.308392 -0.772765,1.661469 -1.625789,3.398287 -2.555963,5.025857 -2.571563,4.50281 -4.799779,9.658437 -9.781056,12.761976 1.869707,-1.651209 3.367528,-3.996703 4.50236,-5.640773 0.357178,-0.519936 1.426471,-1.197272 0.890494,-1.774728 -1.381431,0.638106 -2.173815,2.396774 -3.209669,3.884334 -0.917684,1.320792 -1.842958,3.634617 -3.582446,3.264069 1.241412,-2.944801 5.307675,-6.010431 7.55684,-8.425045 0.543127,-0.580126 1.66013,-2.030227 1.227602,-2.465444 -0.704985,-0.708105 -2.856501,1.60439 -3.335418,2.264346 -1.048333,1.44876 -2.192545,3.868714 -3.554357,4.777928 1.56025,-2.096666 1.704719,-5.083826 3.781776,-7.489961 0.929724,-1.079103 2.159096,-2.318295 3.296168,-3.578436 1.709179,-1.900478 4.5969,-3.802735 3.821015,-6.17943 -2.99964,2.162666 -4.424771,6.641837 -7.287972,9.14206 1.690899,-4.391781 5.873101,-8.669843 7.976008,-13.046464 -1.066173,-0.436988 -1.777399,0.899854 -2.289745,1.50852 -4.828329,5.728172 -5.250156,11.677513 -9.682067,17.105138 0.386607,-1.280652 0.134669,-3.297509 1.127713,-4.690089 0.932843,-1.309192 2.764201,-1.966468 2.288855,-3.628377 -0.442338,-0.601526 -0.957374,0.317048 -1.418881,0.137789 0.369207,-2.046726 1.882188,-4.081423 3.514217,-6.09293 0.882014,-1.087133 1.968257,-2.614823 1.49336,-3.865154 -2.421304,1.940157 -4.082763,3.994923 -5.048607,6.524117 -0.582806,1.52413 -0.426287,3.241329 -1.118793,4.48855 -0.687145,1.238292 -1.631139,1.974488 -2.059216,3.030851 -1.094713,2.703112 -0.377688,7.101133 -1.957997,9.496128 -0.276458,0.418697 -0.787915,0.601966 -1.054573,0.958703 -1.191483,1.59279 -0.721926,3.834831 0.453487,5.370992 -3.478998,3.252922 -6.549088,6.574509 -9.130471,9.911264 0.469097,-0.981451 0.807105,-1.944175 0.798625,-2.954162 -0.832964,1.618209 -1.5317,4.45376 -2.892621,4.835907 -0.305898,-1.268616 0.479807,-2.259875 -0.303668,-3.155267 -0.0129,3.900829 -1.661459,7.147952 -3.962364,7.954159 0.190859,-2.563097 0.729955,-4.760547 1.374301,-6.846964 3.614106,-1.714082 5.242126,-6.596356 6.768486,-9.84348 -1.478201,1.591453 -2.002597,2.982253 -2.790962,4.523767 -0.882904,1.728793 -1.752429,2.797199 -3.530277,3.365285 1.099623,-4.307496 3.381788,-8.430388 3.708196,-12.880133 -0.927044,3.347006 -2.022657,5.956029 -3.388918,8.560152 -0.138229,-2.544813 1.54775,-5.444132 0.978774,-6.857663 -2.695533,6.291803 -1.904038,10.98055 -4.020334,17.002134 -1.016143,-2.654507 -2.553513,-7.592524 -0.572106,-14.573705 -2.322615,2.717828 -2.219836,11.790332 0.321058,16.535267 -0.0785,1.788552 -0.495407,3.623032 -0.921524,5.001782 -0.812585,-1.31454 -3.18112,-2.32543 -3.628237,-4.14563 -0.671145,-2.734775 0.715546,-5.650587 0.0308,-8.067426 -0.501127,1.373408 -0.722335,4.336934 -0.974374,6.662361 -1.665199,-0.976995 -2.238425,-2.988051 -4.427401,-3.469638 1.221882,1.405515 3.505977,2.722735 4.377602,5.239457 0.884814,2.557746 0.490807,5.758486 1.339111,8.300636 0.635426,1.90136 1.957287,2.76018 2.035007,4.58218 -2.543294,-2.97423 -6.438738,-6.21689 -6.22273,-11.22625 -0.430447,0.80397 -0.715555,1.72166 -0.616296,2.57335 -1.218942,-0.56854 -0.956793,-2.54482 -1.670069,-3.58959 -0.312498,2.02132 0.975964,4.18042 1.805939,5.75849 0.696375,5.911 4.361231,9.01722 6.503697,13.56194 -0.0159,0.31437 0.247348,3.59315 0.0352,5.70811 -1.997367,-2.09936 -5.370595,-4.23883 -6.08566,-7.45251 -0.367878,-1.65745 0.380637,-3.63953 -0.237759,-5.51637 -0.312448,0.98903 -0.102559,2.99563 -0.893564,3.71355 -0.673546,-2.74191 -0.888654,-5.74557 -2.330905,-7.93499 0.141089,3.55837 1.087443,6.19103 2.104476,9.10818 0.875815,2.51939 1.039864,5.59217 2.147686,7.53857 1.696729,2.98091 5.971011,4.85017 5.854322,8.62391 -2.628243,-0.83117 -4.650719,-2.23579 -6.785696,-3.53518 -1.065463,-1.86301 -1.39258,-4.42254 -2.98341,-5.79015 0.469587,2.53456 1.065993,3.20164 1.432661,4.95942 -1.217022,-0.3487 -2.364345,-1.13217 -3.903815,-1.09471 0.839255,1.43851 3.396598,1.25569 4.65737,2.29733 1.217332,1.90627 2.068216,3.59583 3.388738,5.40578 1.876837,2.57335 4.56448,3.96281 6.09636,6.22447 1.348431,1.98921 2.373144,3.93561 3.479437,6.0791 0.640776,1.7939 1.133952,3.55837 0.635876,5.18372 -0.851245,-0.43031 -1.917418,-0.0174 -2.748592,-0.52707 -2.833282,-3.97931 -6.264029,-5.61223 -10.348123,-4.662 2.332875,2.40614 3.826495,4.09614 6.400739,4.84661 2.413894,0.70543 4.944877,0.24748 7.288142,1.34308 1.038973,4.18309 3.738075,8.18826 6.015341,12.37938 -2.324975,-1.15758 -4.64461,-0.93017 -6.366719,-2.97423 -0.635866,-0.75091 -0.768745,-2.14884 -1.385001,-3.23196 -1.687769,-2.97021 -4.088413,-4.38865 -7.117663,-4.69187 0.427267,2.55685 1.978367,5.3108 3.04842,6.0305 2.294975,1.54464 5.172876,3.00811 7.916568,4.21698 3.06385,1.34487 5.036567,0.92749 6.363588,4.32801 -0.721475,-0.058 -1.4822,0.0401 -2.274585,0.272 -2.902431,-3.69169 -10.235883,0.20958 -9.783286,4.46803 3.14724,-1.40016 7.148844,-0.3924 9.303929,-3.9151 1.198163,0.17391 2.602333,-0.45482 3.664947,0.25417 1.175412,1.72122 4.50057,6.62178 9.608037,10.24257 3.167309,2.24294 6.595467,4.19157 10.008474,5.64969 -0.389727,-0.0134 -0.852584,-0.009 -1.389011,0.0268 -4.204942,0.26754 -9.10639,-1.15937 -12.620177,-3.11246 -0.152499,-0.709 -0.550257,-1.01668 -1.016674,-1.44921 -0.204228,-0.82493 -0.111479,-1.54731 -0.155179,-2.70668 -0.0504,-1.24855 -0.630065,-2.09578 -1.063943,-3.05003 -0.115489,-0.25417 -0.0878,-0.59306 -0.300098,-0.78926 -0.500306,-0.46375 -1.49648,0.24525 -0.990813,0.74913 0.234988,0.23187 0.610006,0.12486 0.843224,0.27647 0.893595,0.5663 1.159363,1.8862 1.243642,3.26406 -0.713015,-0.76696 -1.55311,-2.46589 -2.701772,-3.11692 -0.838315,-0.47712 -1.177652,-1.10586 -1.895568,-1.30652 -0.335777,-0.0936 -0.908764,0.26309 -0.639446,0.77589 0.296089,0.56185 1.026494,-0.0758 1.60395,0.46375 0.263978,0.24971 -0.233658,0.53955 0.0584,0.82047 1.282441,0.34781 1.52145,1.59637 2.159995,2.4971 -1.003743,-0.77142 -2.209935,-2.30535 -3.890124,-2.85383 -0.236339,-0.0491 -0.353608,-0.61981 -0.680466,-0.61981 -0.519926,-0.005 -0.869974,0.47266 -0.355387,0.78926 0.390617,0.24525 0.376787,0.0847 0.633196,0.16053 1.46615,0.42361 2.828851,1.31098 3.596266,2.4748 -0.491387,-0.51725 -1.609289,-0.55293 -2.396324,-0.87398 -0.457947,-0.18728 -1.52635,-1.09248 -1.387231,-0.2185 0.125299,0.8071 1.45144,0.51726 2.169806,0.74021 1.055473,0.32998 2.041826,0.71792 2.469003,1.46705 0.13645,0.24079 0.10524,0.4905 0.181929,0.71346 -1.347541,-1.01668 -3.493257,-2.28752 -6.13573,-2.54615 -0.404437,-0.0134 -0.0945,-0.47713 -0.646125,-0.62428 -0.374118,-0.13377 -1.294922,0.16053 -0.883795,0.74913 0.385718,0.54847 1.255682,-0.0179 1.971378,0.25863 0.210908,0.30768 -0.330868,0.36565 -0.0589,0.81602 -1.224912,0.18282 -4.073383,-0.98993 -3.667606,0.55293 0.160969,0.61089 0.778115,-0.30322 1.197712,-0.37903 1.056363,-0.19174 2.245165,0.0892 3.13431,0.33889 -0.0522,0.40132 -1.016234,0.30323 -0.523497,0.78481 0.292518,0.28092 1.002403,-0.13378 1.4715,-0.0312 1.268622,0.27646 2.553734,0.91411 3.701066,1.33772 -1.255692,-0.18281 -2.889951,-0.12931 -4.299922,-0.42807 -1.360481,-0.28538 -2.398114,-1.72121 -3.09329,-0.92304 0.405788,0.66887 1.65032,0.6109 2.386515,0.98993 -0.688036,0.39686 -1.625779,0.61535 -2.469454,0.1739 -0.326398,-0.32997 0.563636,-0.40132 0.174809,-0.80709 -0.680016,-0.19174 -1.351121,0.28984 -1.105863,0.74467 0.217159,0.52171 0.853025,0.0357 1.253902,0.43699 -0.484267,0.75359 -3.183809,0.92749 -2.228216,1.83269 0.443678,0.41916 0.742436,-0.43699 1.040754,-0.72238 0.495406,-0.47266 1.269061,-0.63764 1.987417,-0.81601 0.409347,0.0446 0.198878,0.64657 0.531976,0.74022 1.49915,0.40577 2.874791,1.03896 4.748949,0.69116 -1.302941,0.44591 -3.963254,1.07018 -5.323725,0.18727 -0.200219,-0.12931 -0.288958,-0.3924 -0.507897,-0.4905 -0.361187,-0.16498 -0.958703,0.36565 -0.639436,0.77589 0.224299,0.28538 0.693396,0.1739 1.034074,0.24079 1.019793,0.1962 2.017737,0.25863 3.148129,0.17391 -0.826274,0.38794 -1.749308,0.66887 -2.644253,0.981 -0.577006,0.0624 -0.270668,-0.64211 -0.898954,-0.53509 -0.345137,0.17836 -0.843664,0.81155 -0.422727,1.02113 0.256398,0.13378 0.581916,-0.10701 0.883354,-0.15161 0.605096,-0.0847 1.205742,-0.1739 1.61999,-0.48604 0.262638,0.2943 0.744225,0.56631 1.263711,0.32552 -0.238118,0.53509 -1.277981,0.79818 -2.168465,0.94528 -0.309018,0.0535 -0.669306,-0.0402 -0.834745,0.12927 -0.201999,0.20066 -0.119499,0.65107 0.066,0.70454 0.329517,0.0937 0.636755,-0.23183 0.943093,-0.36123 0.494967,-0.20503 0.976544,-0.42799 1.469281,-0.63752 0.612236,-0.24525 -0.558726,0.41906 -0.058,0.81588 1.253012,-0.14701 1.6093,-1.33314 2.370015,-2.05105 1.191922,-0.47267 2.181395,-1.18167 3.06832,-2.0066 0.694275,0.12931 0.989023,-0.20066 1.43137,-0.36565 4.172833,1.76581 6.606167,3.46919 14.036829,3.14813 0.671095,-0.0268 1.123252,-0.0936 1.372961,-0.1739 3.907964,1.54276 7.747699,2.41229 11.108977,2.3186 -1.230262,0.59311 -3.11201,1.21301 -4.452861,1.68122 -1.004193,0.35218 -2.736112,0.38339 -2.844471,1.78801 1.259251,0.44154 1.928557,-0.73125 2.875231,-1.19491 4.274952,-2.07803 9.729776,-2.33671 15.770087,-1.88187 -2.40301,0.49937 -3.46027,3.82591 -5.85659,4.42339 -1.369393,0.33443 -2.720054,0.0134 -3.866047,0.26317 -5.027207,1.09703 -8.416125,5.27955 -10.750919,10.64385 1.938827,0.50829 3.499067,0.90524 5.139126,0.71801 4.229022,-0.48163 9.55275,-4.58851 10.52617,-9.51583 0.0896,-0.44141 -0.007,-0.99879 0.13823,-1.43583 0.77857,-2.34554 4.01409,-4.59288 6.64631,-4.70436 2.27325,-0.0981 4.83947,0.67778 7.25497,0.40132 -2.09534,0.80264 -4.21207,2.56398 -5.63274,4.75787 -0.48962,0.75804 -1.53617,2.5016 0.009,2.93409 1.07197,-0.74913 0.39418,-1.99768 0.72727,-2.93846 0.42987,-1.22189 2.77446,-2.86726 3.9111,-3.48266 3.10443,-1.68554 7.99428,-1.84598 11.22401,-2.63087 -1.36984,1.30656 -2.23357,3.36663 -3.11558,5.40007 -6.63292,1.81031 -12.77133,5.78797 -13.24801,15.13867 5.83608,-2.37219 12.28886,-3.87942 13.85311,-11.50012 0.18105,-0.88733 -0.11415,-2.64412 0.18461,-3.91952 0.61937,-2.64429 2.82886,-4.95848 4.83723,-5.93949 2.57426,-1.26193 6.5152,-2.21172 8.88387,-3.54499 3.03845,-1.7123 7.94305,-5.17257 11.25749,-7.63399 -2.60905,2.4525 -5.22342,5.25729 -7.14707,7.34415 -3.80899,1.60528 -8.07143,1.44475 -11.61823,4.60175 3.10804,1.8817 6.44965,-1.26647 9.71329,-2.67096 -2.77713,3.04548 -5.66218,5.09231 -8.40585,7.07661 -1.50408,1.08343 -3.48925,1.94408 -4.1104,3.7411 5.243,-0.69548 12.37135,-12.20449 18.41028,-13.8722 -1.91203,2.27415 -4.98436,3.87943 -6.72785,5.74325 -0.48518,0.51279 -1.34178,1.31544 -0.90967,2.17604 4.54827,-0.10256 6.97137,-6.63061 9.90902,-9.02069 -2.70402,3.79025 -6.43359,9.18131 -11.17184,12.28926 -1.74708,1.14595 -3.90395,1.59186 -4.69681,3.31317 1.7609,0.70003 3.63328,-1.52952 5.49186,-3.07242 2.3923,-1.98868 4.95275,-4.10675 6.10852,-5.81464 0.0439,-0.0848 0.0897,-0.16493 0.12976,-0.24975 0.0353,-0.0312 0.0705,-0.0669 0.10613,-0.0981 -0.0656,0.11603 -0.1574,0.23187 -0.23589,0.34786 -0.88736,1.77477 -2.3089,3.42464 -3.35549,5.23494 -0.96179,1.6678 -2.08463,3.58959 -1.5598,5.27513 1.75471,-0.59743 2.13058,-2.81811 2.82667,-4.30754 0.77095,-1.65875 1.62535,-3.3978 2.55593,-5.02537 2.57161,-4.49916 4.79934,-9.65834 9.78018,-12.76188 -1.87013,1.65433 -3.36751,3.99981 -4.50369,5.64523 -0.35495,0.51726 -1.42559,1.19058 -0.88873,1.77027 1.38102,-0.63766 2.17381,-2.39455 3.20832,-3.88389 0.91816,-1.3199 1.84522,-3.63417 3.58426,-3.25961 -1.24144,2.94301 -5.3081,6.00642 -7.55821,8.4188 -0.54131,0.58414 -1.65969,2.03327 -1.22757,2.4658 0.70632,0.70908 2.85696,-1.60073 3.33544,-2.26068 1.04919,-1.44921 2.19207,-3.87051 3.55385,-4.78016 -1.56021,2.10023 -1.70378,5.08338 -3.78176,7.49125 -0.93013,1.07906 -2.15955,2.31874 -3.2944,3.58071 -1.70916,1.89512 -4.59773,3.79912 -3.82274,6.17587 2.99915,-2.16267 4.42653,-6.63971 7.29019,-9.14117 -1.69135,4.39222 -5.87402,8.66841 -7.97738,13.04289 1.06618,0.44136 1.77829,-0.89637 2.28976,-1.50723 4.82836,-5.7254 5.25019,-11.67399 9.68296,-17.10064 -0.38796,1.27977 -0.13601,3.29529 -1.12902,4.68657 -0.9315,1.31089 -2.76332,1.96634 -2.2889,3.62963 0.44328,0.60198 0.95695,-0.31664 1.41935,-0.13828 -0.37009,2.04682 -1.88174,4.08009 -3.5142,6.09119 -0.8825,1.08798 -1.96695,2.61745 -1.49206,3.866 2.41998,-1.93971 4.08053,-3.9909 5.0477,-6.52367 0.5824,-1.52502 0.42634,-3.24177 1.11885,-4.48578 0.68713,-1.23967 1.63067,-1.97543 2.05873,-3.03219 1.09561,-2.70222 0.3768,-7.0989 1.95799,-9.4979 0.27693,-0.41916 0.78794,-0.60198 1.05596,-0.95871 1.19011,-1.5919 0.71921,-3.83483 -0.45529,-5.36877 3.479,-3.25515 6.54953,-6.57585 9.12957,-9.91215 -0.46911,0.98234 -0.80666,1.94551 -0.79684,2.95594 0.83251,-1.6191 1.52992,-4.45465 2.89037,-4.83635 0.30681,1.26906 -0.478,2.25988 0.30501,3.15527 0.0121,-3.90083 1.66194,-7.1484 3.96194,-7.95594 -0.18953,2.56398 -0.72864,4.76143 -1.37208,6.8474 -3.615,1.71408 -5.24393,6.5977 -6.77114,9.84393 1.47865,-1.5919 2.00349,-2.98314 2.79095,-4.52154 0.88423,-1.73058 1.75332,-2.79943 3.53115,-3.36707 -1.09827,4.30795 -3.38219,8.43262 -3.70865,12.88281 0.9266,-3.34879 2.024,-5.96183 3.38942,-8.56149 0.1382,2.5417 -1.54732,5.44458 -0.97972,6.85811 2.69558,-6.2918 1.90539,-10.98278 4.02083,-17.00525 1.01711,2.6545 2.5546,7.59208 0.57298,14.57504 2.3223,-2.72006 2.21883,-11.79167 -0.32016,-16.53437 0.0771,-1.789 0.49361,-3.62392 0.92081,-5.00268 0.81332,1.3141 3.17978,2.32721 3.62658,4.14653 0.67198,2.73209 -0.71523,5.6488 -0.0301,8.06474 0.50119,-1.37118 0.72106,-4.3347 0.97567,-6.66191 1.6646,0.97833 2.23532,2.98805 4.42566,3.47053 -1.22178,-1.40552 -3.5053,-2.72229 -4.37572,-5.23857 -0.88515,-2.55685 -0.49275,-5.75849 -1.34085,-8.30152 -0.63454,-1.90181 -1.95713,-2.75885 -2.03562,-4.58352 2.54438,2.97601 6.44076,6.21823 6.2236,11.22714 0.42941,-0.80308 0.71483,-1.7221 0.61714,-2.5729 1.21734,0.56854 0.95561,2.54481 1.66905,3.58824 0.31391,-2.01953 -0.97655,-4.18041 -1.80505,-5.75759 -0.69783,-5.90921 -4.36191,-9.01588 -6.50452,-13.56194 0.0162,-0.31347 -0.24658,-3.59359 -0.0353,-5.70721 1.99811,2.0989 5.371,4.23972 6.08489,7.45161 0.36876,1.65835 -0.37992,3.63953 0.239,5.51547"
           style="fill:#2b2824;fill-opacity:1;fill-rule:evenodd;stroke:none;stroke-width:0.044591"
           id="path464" />
      </g>
    </g>
  </g>
</svg>
